<?xml version="1.0" encoding="UTF-8" standalone="no"?>
<!DOCTYPE svg PUBLIC "-//W3C//DTD SVG 1.1//EN"
 "http://www.w3.org/Graphics/SVG/1.1/DTD/svg11.dtd">
<!-- Generated by graphviz version 5.0.0 (20220707.1540)
 -->
<!-- Title: UmlClassDiagram Pages: 1 -->
<svg width="3933pt" height="1663pt"
 viewBox="0.00 0.00 3933.29 1663.40" xmlns="http://www.w3.org/2000/svg" xmlns:xlink="http://www.w3.org/1999/xlink">
<g id="graph0" class="graph" transform="scale(1 1) rotate(0) translate(4 1659.4)">
<title>UmlClassDiagram</title>
<polygon fill="white" stroke="transparent" points="-4,4 -4,-1659.4 3929.29,-1659.4 3929.29,4 -4,4"/>
<!-- 0 -->
<g id="node1" class="node">
<title>0</title>
<polygon fill="#f2f2f2" stroke="black" points="0,-882.5 0,-1049.7 788.21,-1049.7 788.21,-882.5 0,-882.5"/>
<text text-anchor="middle" x="394.11" y="-1033.1" font-family="Times,serif" font-size="14.00">&lt;&lt;Interface&gt;&gt;</text>
<text text-anchor="middle" x="394.11" y="-1016.3" font-family="Times,serif" font-size="14.00">AggregatorV3Interface</text>
<text text-anchor="middle" x="394.11" y="-999.5" font-family="Times,serif" font-size="14.00">public/flatten/ChainlinkOracleProvider.flatten.sol</text>
<polyline fill="none" stroke="black" points="0,-991.3 788.21,-991.3 "/>
<text text-anchor="start" x="8" y="-974.7" font-family="Times,serif" font-size="14.00">External:</text>
<text text-anchor="start" x="8" y="-957.9" font-family="Times,serif" font-size="14.00"> &#160;&#160;&#160;&#160;decimals(): uint8</text>
<text text-anchor="start" x="8" y="-941.1" font-family="Times,serif" font-size="14.00"> &#160;&#160;&#160;&#160;description(): string</text>
<text text-anchor="start" x="8" y="-924.3" font-family="Times,serif" font-size="14.00"> &#160;&#160;&#160;&#160;version(): uint256</text>
<text text-anchor="start" x="8" y="-907.5" font-family="Times,serif" font-size="14.00"> &#160;&#160;&#160;&#160;getRoundData(_roundId: uint80): (roundId: uint80, answer: int256, startedAt: uint256, updatedAt: uint256, answeredInRound: uint80)</text>
<text text-anchor="start" x="8" y="-890.7" font-family="Times,serif" font-size="14.00"> &#160;&#160;&#160;&#160;latestRoundData(): (roundId: uint80, answer: int256, startedAt: uint256, updatedAt: uint256, answeredInRound: uint80)</text>
</g>
<!-- 1 -->
<g id="node2" class="node">
<title>1</title>
<polygon fill="#f2f2f2" stroke="black" points="2008.92,-916.1 2008.92,-1016.1 2303.29,-1016.1 2303.29,-916.1 2008.92,-916.1"/>
<text text-anchor="middle" x="2156.11" y="-999.5" font-family="Times,serif" font-size="14.00">&lt;&lt;Interface&gt;&gt;</text>
<text text-anchor="middle" x="2156.11" y="-982.7" font-family="Times,serif" font-size="14.00">IERC1822Proxiable</text>
<text text-anchor="middle" x="2156.11" y="-965.9" font-family="Times,serif" font-size="14.00">public/flatten/ChainlinkOracleProvider.flatten.sol</text>
<polyline fill="none" stroke="black" points="2008.92,-957.7 2303.29,-957.7 "/>
<text text-anchor="start" x="2016.92" y="-941.1" font-family="Times,serif" font-size="14.00">External:</text>
<text text-anchor="start" x="2016.92" y="-924.3" font-family="Times,serif" font-size="14.00"> &#160;&#160;&#160;&#160;proxiableUUID(): bytes32</text>
</g>
<!-- 2 -->
<g id="node3" class="node">
<title>2</title>
<polygon fill="#f2f2f2" stroke="black" points="2020.92,-1313.1 2020.92,-1413.1 2315.29,-1413.1 2315.29,-1313.1 2020.92,-1313.1"/>
<text text-anchor="middle" x="2168.11" y="-1396.5" font-family="Times,serif" font-size="14.00">&lt;&lt;Interface&gt;&gt;</text>
<text text-anchor="middle" x="2168.11" y="-1379.7" font-family="Times,serif" font-size="14.00">IBeacon</text>
<text text-anchor="middle" x="2168.11" y="-1362.9" font-family="Times,serif" font-size="14.00">public/flatten/ChainlinkOracleProvider.flatten.sol</text>
<polyline fill="none" stroke="black" points="2020.92,-1354.7 2315.29,-1354.7 "/>
<text text-anchor="start" x="2028.92" y="-1338.1" font-family="Times,serif" font-size="14.00">External:</text>
<text text-anchor="start" x="2028.92" y="-1321.3" font-family="Times,serif" font-size="14.00"> &#160;&#160;&#160;&#160;implementation(): address</text>
</g>
<!-- 3 -->
<g id="node4" class="node">
<title>3</title>
<polygon fill="#f2f2f2" stroke="black" points="883.43,-848.9 883.43,-1083.3 1312.79,-1083.3 1312.79,-848.9 883.43,-848.9"/>
<text text-anchor="middle" x="1098.11" y="-1066.7" font-family="Times,serif" font-size="14.00">&lt;&lt;Interface&gt;&gt;</text>
<text text-anchor="middle" x="1098.11" y="-1049.9" font-family="Times,serif" font-size="14.00">IERC20</text>
<text text-anchor="middle" x="1098.11" y="-1033.1" font-family="Times,serif" font-size="14.00">public/flatten/ChainlinkOracleProvider.flatten.sol</text>
<polyline fill="none" stroke="black" points="883.43,-1024.9 1312.79,-1024.9 "/>
<text text-anchor="start" x="891.43" y="-1008.3" font-family="Times,serif" font-size="14.00">External:</text>
<text text-anchor="start" x="891.43" y="-991.5" font-family="Times,serif" font-size="14.00"> &#160;&#160;&#160;&#160;totalSupply(): uint256</text>
<text text-anchor="start" x="891.43" y="-974.7" font-family="Times,serif" font-size="14.00"> &#160;&#160;&#160;&#160;balanceOf(account: address): uint256</text>
<text text-anchor="start" x="891.43" y="-957.9" font-family="Times,serif" font-size="14.00"> &#160;&#160;&#160;&#160;transfer(to: address, value: uint256): bool</text>
<text text-anchor="start" x="891.43" y="-941.1" font-family="Times,serif" font-size="14.00"> &#160;&#160;&#160;&#160;allowance(owner: address, spender: address): uint256</text>
<text text-anchor="start" x="891.43" y="-924.3" font-family="Times,serif" font-size="14.00"> &#160;&#160;&#160;&#160;approve(spender: address, value: uint256): bool</text>
<text text-anchor="start" x="891.43" y="-907.5" font-family="Times,serif" font-size="14.00"> &#160;&#160;&#160;&#160;transferFrom(from: address, to: address, value: uint256): bool</text>
<text text-anchor="start" x="891.43" y="-890.7" font-family="Times,serif" font-size="14.00">Public:</text>
<text text-anchor="start" x="891.43" y="-873.9" font-family="Times,serif" font-size="14.00"> &#160;&#160;&#160;&lt;&lt;event&gt;&gt; Transfer(from: address, to: address, value: uint256)</text>
<text text-anchor="start" x="891.43" y="-857.1" font-family="Times,serif" font-size="14.00"> &#160;&#160;&#160;&lt;&lt;event&gt;&gt; Approval(owner: address, spender: address, value: uint256)</text>
</g>
<!-- 4 -->
<g id="node5" class="node">
<title>4</title>
<polygon fill="#f2f2f2" stroke="black" points="2333.67,-1245.9 2333.67,-1480.3 2832.54,-1480.3 2832.54,-1245.9 2333.67,-1245.9"/>
<text text-anchor="middle" x="2583.11" y="-1463.7" font-family="Times,serif" font-size="14.00">&lt;&lt;Library&gt;&gt;</text>
<text text-anchor="middle" x="2583.11" y="-1446.9" font-family="Times,serif" font-size="14.00">Address</text>
<text text-anchor="middle" x="2583.11" y="-1430.1" font-family="Times,serif" font-size="14.00">public/flatten/ChainlinkOracleProvider.flatten.sol</text>
<polyline fill="none" stroke="black" points="2333.67,-1421.9 2832.54,-1421.9 "/>
<text text-anchor="start" x="2341.67" y="-1405.3" font-family="Times,serif" font-size="14.00">Private:</text>
<text text-anchor="start" x="2341.67" y="-1388.5" font-family="Times,serif" font-size="14.00"> &#160;&#160;&#160;_revert(returndata: bytes)</text>
<text text-anchor="start" x="2341.67" y="-1371.7" font-family="Times,serif" font-size="14.00">Internal:</text>
<text text-anchor="start" x="2341.67" y="-1354.9" font-family="Times,serif" font-size="14.00"> &#160;&#160;&#160;sendValue(recipient: address, amount: uint256)</text>
<text text-anchor="start" x="2341.67" y="-1338.1" font-family="Times,serif" font-size="14.00"> &#160;&#160;&#160;functionCall(target: address, data: bytes): bytes</text>
<text text-anchor="start" x="2341.67" y="-1321.3" font-family="Times,serif" font-size="14.00"> &#160;&#160;&#160;functionCallWithValue(target: address, data: bytes, value: uint256): bytes</text>
<text text-anchor="start" x="2341.67" y="-1304.5" font-family="Times,serif" font-size="14.00"> &#160;&#160;&#160;functionStaticCall(target: address, data: bytes): bytes</text>
<text text-anchor="start" x="2341.67" y="-1287.7" font-family="Times,serif" font-size="14.00"> &#160;&#160;&#160;functionDelegateCall(target: address, data: bytes): bytes</text>
<text text-anchor="start" x="2341.67" y="-1270.9" font-family="Times,serif" font-size="14.00"> &#160;&#160;&#160;verifyCallResultFromTarget(target: address, success: bool, returndata: bytes): bytes</text>
<text text-anchor="start" x="2341.67" y="-1254.1" font-family="Times,serif" font-size="14.00"> &#160;&#160;&#160;verifyCallResult(success: bool, returndata: bytes): bytes</text>
</g>
<!-- 5 -->
<g id="node6" class="node">
<title>5</title>
<polygon fill="#f2f2f2" stroke="black" points="2850.71,-1254.3 2850.71,-1471.9 3145.51,-1471.9 3145.51,-1254.3 2850.71,-1254.3"/>
<text text-anchor="middle" x="2998.11" y="-1455.3" font-family="Times,serif" font-size="14.00">&lt;&lt;Library&gt;&gt;</text>
<text text-anchor="middle" x="2998.11" y="-1438.5" font-family="Times,serif" font-size="14.00">StorageSlot</text>
<text text-anchor="middle" x="2998.11" y="-1421.7" font-family="Times,serif" font-size="14.00">public/flatten/ChainlinkOracleProvider.flatten.sol</text>
<polyline fill="none" stroke="black" points="2850.71,-1413.5 3145.51,-1413.5 "/>
<text text-anchor="start" x="2858.71" y="-1396.9" font-family="Times,serif" font-size="14.00">Internal:</text>
<text text-anchor="start" x="2858.71" y="-1380.1" font-family="Times,serif" font-size="14.00"> &#160;&#160;&#160;getAddressSlot(slot: bytes32): (r: AddressSlot)</text>
<text text-anchor="start" x="2858.71" y="-1363.3" font-family="Times,serif" font-size="14.00"> &#160;&#160;&#160;getBooleanSlot(slot: bytes32): (r: BooleanSlot)</text>
<text text-anchor="start" x="2858.71" y="-1346.5" font-family="Times,serif" font-size="14.00"> &#160;&#160;&#160;getBytes32Slot(slot: bytes32): (r: Bytes32Slot)</text>
<text text-anchor="start" x="2858.71" y="-1329.7" font-family="Times,serif" font-size="14.00"> &#160;&#160;&#160;getUint256Slot(slot: bytes32): (r: Uint256Slot)</text>
<text text-anchor="start" x="2858.71" y="-1312.9" font-family="Times,serif" font-size="14.00"> &#160;&#160;&#160;getStringSlot(slot: bytes32): (r: StringSlot)</text>
<text text-anchor="start" x="2858.71" y="-1296.1" font-family="Times,serif" font-size="14.00"> &#160;&#160;&#160;getStringSlot(store: string): (r: StringSlot)</text>
<text text-anchor="start" x="2858.71" y="-1279.3" font-family="Times,serif" font-size="14.00"> &#160;&#160;&#160;getBytesSlot(slot: bytes32): (r: BytesSlot)</text>
<text text-anchor="start" x="2858.71" y="-1262.5" font-family="Times,serif" font-size="14.00"> &#160;&#160;&#160;getBytesSlot(store: bytes): (r: BytesSlot)</text>
</g>
<!-- 6 -->
<g id="node7" class="node">
<title>6</title>
<polygon fill="#f2f2f2" stroke="black" points="2070.92,-1563.3 2070.92,-1646.5 2365.29,-1646.5 2365.29,-1563.3 2070.92,-1563.3"/>
<text text-anchor="middle" x="2218.11" y="-1629.9" font-family="Times,serif" font-size="14.00">&lt;&lt;Struct&gt;&gt;</text>
<text text-anchor="middle" x="2218.11" y="-1613.1" font-family="Times,serif" font-size="14.00">AddressSlot</text>
<text text-anchor="middle" x="2218.11" y="-1596.3" font-family="Times,serif" font-size="14.00">public/flatten/ChainlinkOracleProvider.flatten.sol</text>
<polyline fill="none" stroke="black" points="2070.92,-1588.1 2365.29,-1588.1 "/>
<text text-anchor="start" x="2078.92" y="-1571.5" font-family="Times,serif" font-size="14.00">value: address</text>
</g>
<!-- 5&#45;&gt;6 -->
<g id="edge7" class="edge">
<title>5&#45;&gt;6</title>
<path fill="none" stroke="black" stroke-dasharray="5,2" d="M2900.09,-1472.17C2879.56,-1490.53 2856.63,-1507.25 2832.11,-1518.4 2737.36,-1561.49 2467.28,-1534.53 2365.11,-1554.4 2356,-1556.17 2346.68,-1558.3 2337.36,-1560.66"/>
<polygon fill="black" stroke="black" points="2336.45,-1557.28 2327.66,-1563.19 2338.22,-1564.05 2336.45,-1557.28"/>
</g>
<!-- 7 -->
<g id="node8" class="node">
<title>7</title>
<polygon fill="#f2f2f2" stroke="black" points="2382.92,-1563.3 2382.92,-1646.5 2677.29,-1646.5 2677.29,-1563.3 2382.92,-1563.3"/>
<text text-anchor="middle" x="2530.11" y="-1629.9" font-family="Times,serif" font-size="14.00">&lt;&lt;Struct&gt;&gt;</text>
<text text-anchor="middle" x="2530.11" y="-1613.1" font-family="Times,serif" font-size="14.00">BooleanSlot</text>
<text text-anchor="middle" x="2530.11" y="-1596.3" font-family="Times,serif" font-size="14.00">public/flatten/ChainlinkOracleProvider.flatten.sol</text>
<polyline fill="none" stroke="black" points="2382.92,-1588.1 2677.29,-1588.1 "/>
<text text-anchor="start" x="2390.92" y="-1571.5" font-family="Times,serif" font-size="14.00">value: bool</text>
</g>
<!-- 5&#45;&gt;7 -->
<g id="edge8" class="edge">
<title>5&#45;&gt;7</title>
<path fill="none" stroke="black" stroke-dasharray="5,2" d="M2895.6,-1472.06C2876,-1489.62 2854.55,-1506.07 2832.11,-1518.4 2770.13,-1552.46 2745.31,-1535.69 2677.11,-1554.4 2670.23,-1556.29 2663.2,-1558.28 2656.13,-1560.34"/>
<polygon fill="black" stroke="black" points="2655.07,-1557 2646.47,-1563.18 2657.05,-1563.72 2655.07,-1557"/>
</g>
<!-- 8 -->
<g id="node9" class="node">
<title>8</title>
<polygon fill="#f2f2f2" stroke="black" points="2694.92,-1563.3 2694.92,-1646.5 2989.29,-1646.5 2989.29,-1563.3 2694.92,-1563.3"/>
<text text-anchor="middle" x="2842.11" y="-1629.9" font-family="Times,serif" font-size="14.00">&lt;&lt;Struct&gt;&gt;</text>
<text text-anchor="middle" x="2842.11" y="-1613.1" font-family="Times,serif" font-size="14.00">Bytes32Slot</text>
<text text-anchor="middle" x="2842.11" y="-1596.3" font-family="Times,serif" font-size="14.00">public/flatten/ChainlinkOracleProvider.flatten.sol</text>
<polyline fill="none" stroke="black" points="2694.92,-1588.1 2989.29,-1588.1 "/>
<text text-anchor="start" x="2702.92" y="-1571.5" font-family="Times,serif" font-size="14.00">value: bytes32</text>
</g>
<!-- 5&#45;&gt;8 -->
<g id="edge9" class="edge">
<title>5&#45;&gt;8</title>
<path fill="none" stroke="black" stroke-dasharray="5,2" d="M2921.15,-1472.07C2902.36,-1500.73 2883.49,-1530.31 2868.86,-1554.17"/>
<polygon fill="black" stroke="black" points="2865.69,-1552.66 2863.47,-1563.02 2871.66,-1556.3 2865.69,-1552.66"/>
</g>
<!-- 9 -->
<g id="node10" class="node">
<title>9</title>
<polygon fill="#f2f2f2" stroke="black" points="3006.92,-1563.3 3006.92,-1646.5 3301.29,-1646.5 3301.29,-1563.3 3006.92,-1563.3"/>
<text text-anchor="middle" x="3154.11" y="-1629.9" font-family="Times,serif" font-size="14.00">&lt;&lt;Struct&gt;&gt;</text>
<text text-anchor="middle" x="3154.11" y="-1613.1" font-family="Times,serif" font-size="14.00">Uint256Slot</text>
<text text-anchor="middle" x="3154.11" y="-1596.3" font-family="Times,serif" font-size="14.00">public/flatten/ChainlinkOracleProvider.flatten.sol</text>
<polyline fill="none" stroke="black" points="3006.92,-1588.1 3301.29,-1588.1 "/>
<text text-anchor="start" x="3014.92" y="-1571.5" font-family="Times,serif" font-size="14.00">value: uint256</text>
</g>
<!-- 5&#45;&gt;9 -->
<g id="edge10" class="edge">
<title>5&#45;&gt;9</title>
<path fill="none" stroke="black" stroke-dasharray="5,2" d="M3061.63,-1472.07C3080.21,-1500.86 3099.92,-1530.57 3116.38,-1554.49"/>
<polygon fill="black" stroke="black" points="3113.72,-1556.79 3122.29,-1563.02 3119.47,-1552.81 3113.72,-1556.79"/>
</g>
<!-- 10 -->
<g id="node11" class="node">
<title>10</title>
<polygon fill="#f2f2f2" stroke="black" points="3318.92,-1563.3 3318.92,-1646.5 3613.29,-1646.5 3613.29,-1563.3 3318.92,-1563.3"/>
<text text-anchor="middle" x="3466.11" y="-1629.9" font-family="Times,serif" font-size="14.00">&lt;&lt;Struct&gt;&gt;</text>
<text text-anchor="middle" x="3466.11" y="-1613.1" font-family="Times,serif" font-size="14.00">StringSlot</text>
<text text-anchor="middle" x="3466.11" y="-1596.3" font-family="Times,serif" font-size="14.00">public/flatten/ChainlinkOracleProvider.flatten.sol</text>
<polyline fill="none" stroke="black" points="3318.92,-1588.1 3613.29,-1588.1 "/>
<text text-anchor="start" x="3326.92" y="-1571.5" font-family="Times,serif" font-size="14.00">value: string</text>
</g>
<!-- 5&#45;&gt;10 -->
<g id="edge11" class="edge">
<title>5&#45;&gt;10</title>
<path fill="none" stroke="black" stroke-dasharray="5,2" d="M3145.61,-1442.95C3219.84,-1481.35 3307.56,-1526.13 3372.47,-1558.7"/>
<polygon fill="black" stroke="black" points="3370.96,-1561.86 3381.47,-1563.21 3374.1,-1555.6 3370.96,-1561.86"/>
</g>
<!-- 11 -->
<g id="node12" class="node">
<title>11</title>
<polygon fill="#f2f2f2" stroke="black" points="3630.92,-1563.3 3630.92,-1646.5 3925.29,-1646.5 3925.29,-1563.3 3630.92,-1563.3"/>
<text text-anchor="middle" x="3778.11" y="-1629.9" font-family="Times,serif" font-size="14.00">&lt;&lt;Struct&gt;&gt;</text>
<text text-anchor="middle" x="3778.11" y="-1613.1" font-family="Times,serif" font-size="14.00">BytesSlot</text>
<text text-anchor="middle" x="3778.11" y="-1596.3" font-family="Times,serif" font-size="14.00">public/flatten/ChainlinkOracleProvider.flatten.sol</text>
<polyline fill="none" stroke="black" points="3630.92,-1588.1 3925.29,-1588.1 "/>
<text text-anchor="start" x="3638.92" y="-1571.5" font-family="Times,serif" font-size="14.00">value: bytes</text>
</g>
<!-- 5&#45;&gt;11 -->
<g id="edge12" class="edge">
<title>5&#45;&gt;11</title>
<path fill="none" stroke="black" stroke-dasharray="5,2" d="M3145.81,-1410.83C3270.43,-1449.06 3453.46,-1504.73 3613.11,-1554.4 3619.16,-1556.28 3625.34,-1558.21 3631.6,-1560.17"/>
<polygon fill="black" stroke="black" points="3630.87,-1563.61 3641.46,-1563.26 3632.97,-1556.93 3630.87,-1563.61"/>
</g>
<!-- 6&#45;&gt;5 -->
<g id="edge1" class="edge">
<title>6&#45;&gt;5</title>
<path fill="none" stroke="black" d="M2345.57,-1563.19C2358.17,-1559.82 2370.84,-1556.79 2383.11,-1554.4 2485.28,-1534.53 2755.36,-1561.49 2850.11,-1518.4 2870.99,-1508.9 2890.72,-1495.37 2908.56,-1480.23"/>
<polygon fill="black" stroke="black" points="2908.71,-1480.1 2910.57,-1473.13 2917.71,-1472.17 2915.85,-1479.14 2908.71,-1480.1"/>
</g>
<!-- 7&#45;&gt;5 -->
<g id="edge2" class="edge">
<title>7&#45;&gt;5</title>
<path fill="none" stroke="black" d="M2664.41,-1563.18C2674.78,-1560.11 2685.11,-1557.14 2695.11,-1554.4 2763.31,-1535.69 2788.13,-1552.46 2850.11,-1518.4 2869.04,-1508 2887.27,-1494.66 2904.08,-1480.2"/>
<polygon fill="black" stroke="black" points="2904.29,-1480.02 2906.13,-1473.04 2913.27,-1472.06 2911.43,-1479.03 2904.29,-1480.02"/>
</g>
<!-- 8&#45;&gt;5 -->
<g id="edge3" class="edge">
<title>8&#45;&gt;5</title>
<path fill="none" stroke="black" d="M2873.93,-1563.02C2889.59,-1540.54 2909.07,-1511.37 2927.94,-1482.33"/>
<polygon fill="black" stroke="black" points="2928.06,-1482.15 2927.97,-1474.94 2934.59,-1472.07 2934.68,-1479.28 2928.06,-1482.15"/>
</g>
<!-- 9&#45;&gt;5 -->
<g id="edge4" class="edge">
<title>9&#45;&gt;5</title>
<path fill="none" stroke="black" d="M3132.74,-1563.02C3119.15,-1540.54 3100.68,-1511.37 3081.77,-1482.33"/>
<polygon fill="black" stroke="black" points="3081.63,-1482.12 3075,-1479.29 3075.07,-1472.07 3081.7,-1474.91 3081.63,-1482.12"/>
</g>
<!-- 10&#45;&gt;5 -->
<g id="edge5" class="edge">
<title>10&#45;&gt;5</title>
<path fill="none" stroke="black" d="M3391.89,-1563.2C3328.9,-1530.14 3236.4,-1482.55 3156.86,-1442.18"/>
<polygon fill="black" stroke="black" points="3156.43,-1441.96 3149.27,-1442.82 3145.73,-1436.54 3152.89,-1435.68 3156.43,-1441.96"/>
</g>
<!-- 11&#45;&gt;5 -->
<g id="edge6" class="edge">
<title>11&#45;&gt;5</title>
<path fill="none" stroke="black" d="M3659.42,-1563.26C3649.86,-1560.25 3640.33,-1557.27 3631.11,-1554.4 3470.26,-1504.36 3285.69,-1448.23 3157.48,-1409.98"/>
<polygon fill="black" stroke="black" points="3157.14,-1409.87 3150.25,-1411.99 3145.64,-1406.45 3152.54,-1404.33 3157.14,-1409.87"/>
</g>
<!-- 12 -->
<g id="node13" class="node">
<title>12</title>
<polygon fill="#f2f2f2" stroke="black" points="1367.22,-1208.3 1367.22,-1517.9 1680.99,-1517.9 1680.99,-1208.3 1367.22,-1208.3"/>
<text text-anchor="middle" x="1524.11" y="-1501.3" font-family="Times,serif" font-size="14.00">&lt;&lt;Abstract&gt;&gt;</text>
<text text-anchor="middle" x="1524.11" y="-1484.5" font-family="Times,serif" font-size="14.00">Initializable</text>
<text text-anchor="middle" x="1524.11" y="-1467.7" font-family="Times,serif" font-size="14.00">public/flatten/ChainlinkOracleProvider.flatten.sol</text>
<polyline fill="none" stroke="black" points="1367.22,-1459.5 1680.99,-1459.5 "/>
<text text-anchor="start" x="1375.22" y="-1442.9" font-family="Times,serif" font-size="14.00">Private:</text>
<text text-anchor="start" x="1375.22" y="-1426.1" font-family="Times,serif" font-size="14.00"> &#160;&#160;INITIALIZABLE_STORAGE: bytes32</text>
<polyline fill="none" stroke="black" points="1367.22,-1417.9 1680.99,-1417.9 "/>
<text text-anchor="start" x="1375.22" y="-1401.3" font-family="Times,serif" font-size="14.00">Private:</text>
<text text-anchor="start" x="1375.22" y="-1384.5" font-family="Times,serif" font-size="14.00"> &#160;&#160;&#160;_getInitializableStorage(): ($: InitializableStorage)</text>
<text text-anchor="start" x="1375.22" y="-1367.7" font-family="Times,serif" font-size="14.00">Internal:</text>
<text text-anchor="start" x="1375.22" y="-1350.9" font-family="Times,serif" font-size="14.00"> &#160;&#160;&#160;_checkInitializing()</text>
<text text-anchor="start" x="1375.22" y="-1334.1" font-family="Times,serif" font-size="14.00"> &#160;&#160;&#160;_disableInitializers()</text>
<text text-anchor="start" x="1375.22" y="-1317.3" font-family="Times,serif" font-size="14.00"> &#160;&#160;&#160;_getInitializedVersion(): uint64</text>
<text text-anchor="start" x="1375.22" y="-1300.5" font-family="Times,serif" font-size="14.00"> &#160;&#160;&#160;_isInitializing(): bool</text>
<text text-anchor="start" x="1375.22" y="-1283.7" font-family="Times,serif" font-size="14.00">Public:</text>
<text text-anchor="start" x="1375.22" y="-1266.9" font-family="Times,serif" font-size="14.00"> &#160;&#160;&#160;&lt;&lt;event&gt;&gt; Initialized(version: uint64)</text>
<text text-anchor="start" x="1375.22" y="-1250.1" font-family="Times,serif" font-size="14.00"> &#160;&#160;&#160;&lt;&lt;modifier&gt;&gt; initializer()</text>
<text text-anchor="start" x="1375.22" y="-1233.3" font-family="Times,serif" font-size="14.00"> &#160;&#160;&#160;&lt;&lt;modifier&gt;&gt; reinitializer(version: uint64)</text>
<text text-anchor="start" x="1375.22" y="-1216.5" font-family="Times,serif" font-size="14.00"> &#160;&#160;&#160;&lt;&lt;modifier&gt;&gt; onlyInitializing()</text>
</g>
<!-- 13 -->
<g id="node14" class="node">
<title>13</title>
<polygon fill="#f2f2f2" stroke="black" points="1376.92,-1554.9 1376.92,-1654.9 1671.29,-1654.9 1671.29,-1554.9 1376.92,-1554.9"/>
<text text-anchor="middle" x="1524.11" y="-1638.3" font-family="Times,serif" font-size="14.00">&lt;&lt;Struct&gt;&gt;</text>
<text text-anchor="middle" x="1524.11" y="-1621.5" font-family="Times,serif" font-size="14.00">InitializableStorage</text>
<text text-anchor="middle" x="1524.11" y="-1604.7" font-family="Times,serif" font-size="14.00">public/flatten/ChainlinkOracleProvider.flatten.sol</text>
<polyline fill="none" stroke="black" points="1376.92,-1596.5 1671.29,-1596.5 "/>
<text text-anchor="start" x="1384.92" y="-1579.9" font-family="Times,serif" font-size="14.00">_initialized: uint64</text>
<text text-anchor="start" x="1384.92" y="-1563.1" font-family="Times,serif" font-size="14.00">_initializing: bool</text>
</g>
<!-- 12&#45;&gt;13 -->
<g id="edge14" class="edge">
<title>12&#45;&gt;13</title>
<path fill="none" stroke="black" stroke-dasharray="5,2" d="M1517.6,-1518C1517.74,-1527.11 1517.93,-1535.93 1518.18,-1544.23"/>
<polygon fill="black" stroke="black" points="1514.69,-1544.58 1518.52,-1554.45 1521.69,-1544.34 1514.69,-1544.58"/>
</g>
<!-- 13&#45;&gt;12 -->
<g id="edge13" class="edge">
<title>13&#45;&gt;12</title>
<path fill="none" stroke="black" d="M1529.69,-1554.45C1529.98,-1546.89 1530.21,-1538.75 1530.39,-1530.25"/>
<polygon fill="black" stroke="black" points="1530.39,-1530 1526.5,-1523.93 1530.61,-1518 1534.5,-1524.08 1530.39,-1530"/>
</g>
<!-- 14 -->
<g id="node15" class="node">
<title>14</title>
<polygon fill="#f2f2f2" stroke="black" points="344.92,-485.5 344.92,-585.5 639.29,-585.5 639.29,-485.5 344.92,-485.5"/>
<text text-anchor="middle" x="492.11" y="-568.9" font-family="Times,serif" font-size="14.00">&lt;&lt;Interface&gt;&gt;</text>
<text text-anchor="middle" x="492.11" y="-552.1" font-family="Times,serif" font-size="14.00">IOracleProvider</text>
<text text-anchor="middle" x="492.11" y="-535.3" font-family="Times,serif" font-size="14.00">public/flatten/ChainlinkOracleProvider.flatten.sol</text>
<polyline fill="none" stroke="black" points="344.92,-527.1 639.29,-527.1 "/>
<text text-anchor="start" x="352.92" y="-510.5" font-family="Times,serif" font-size="14.00">External:</text>
<text text-anchor="start" x="352.92" y="-493.7" font-family="Times,serif" font-size="14.00"> &#160;&#160;&#160;&#160;getPrice(asset: address): uint256</text>
</g>
<!-- 15 -->
<g id="node16" class="node">
<title>15</title>
<polygon fill="#f2f2f2" stroke="black" points="968.92,-468.7 968.92,-602.3 1263.29,-602.3 1263.29,-468.7 968.92,-468.7"/>
<text text-anchor="middle" x="1116.11" y="-585.7" font-family="Times,serif" font-size="14.00">&lt;&lt;Interface&gt;&gt;</text>
<text text-anchor="middle" x="1116.11" y="-568.9" font-family="Times,serif" font-size="14.00">IERC20Metadata</text>
<text text-anchor="middle" x="1116.11" y="-552.1" font-family="Times,serif" font-size="14.00">public/flatten/ChainlinkOracleProvider.flatten.sol</text>
<polyline fill="none" stroke="black" points="968.92,-543.9 1263.29,-543.9 "/>
<text text-anchor="start" x="976.92" y="-527.3" font-family="Times,serif" font-size="14.00">External:</text>
<text text-anchor="start" x="976.92" y="-510.5" font-family="Times,serif" font-size="14.00"> &#160;&#160;&#160;&#160;name(): string</text>
<text text-anchor="start" x="976.92" y="-493.7" font-family="Times,serif" font-size="14.00"> &#160;&#160;&#160;&#160;symbol(): string</text>
<text text-anchor="start" x="976.92" y="-476.9" font-family="Times,serif" font-size="14.00"> &#160;&#160;&#160;&#160;decimals(): uint8</text>
</g>
<!-- 15&#45;&gt;3 -->
<g id="edge15" class="edge">
<title>15&#45;&gt;3</title>
<path fill="none" stroke="black" stroke-dasharray="5,2" d="M1113.33,-602.53C1110.92,-659.98 1107.34,-745.32 1104.25,-818.78"/>
<polygon fill="none" stroke="black" points="1093.76,-818.47 1102.99,-848.88 1114.74,-819.35 1093.76,-818.47"/>
</g>
<!-- 16 -->
<g id="node17" class="node">
<title>16</title>
<polygon fill="#f2f2f2" stroke="black" points="1369.48,-882.5 1369.48,-1049.7 1678.73,-1049.7 1678.73,-882.5 1369.48,-882.5"/>
<text text-anchor="middle" x="1524.11" y="-1033.1" font-family="Times,serif" font-size="14.00">&lt;&lt;Abstract&gt;&gt;</text>
<text text-anchor="middle" x="1524.11" y="-1016.3" font-family="Times,serif" font-size="14.00">ContextUpgradeable</text>
<text text-anchor="middle" x="1524.11" y="-999.5" font-family="Times,serif" font-size="14.00">public/flatten/ChainlinkOracleProvider.flatten.sol</text>
<polyline fill="none" stroke="black" points="1369.48,-991.3 1678.73,-991.3 "/>
<text text-anchor="start" x="1377.48" y="-974.7" font-family="Times,serif" font-size="14.00">Internal:</text>
<text text-anchor="start" x="1377.48" y="-957.9" font-family="Times,serif" font-size="14.00"> &#160;&#160;&#160;__Context_init() &lt;&lt;onlyInitializing&gt;&gt;</text>
<text text-anchor="start" x="1377.48" y="-941.1" font-family="Times,serif" font-size="14.00"> &#160;&#160;&#160;__Context_init_unchained() &lt;&lt;onlyInitializing&gt;&gt;</text>
<text text-anchor="start" x="1377.48" y="-924.3" font-family="Times,serif" font-size="14.00"> &#160;&#160;&#160;_msgSender(): address</text>
<text text-anchor="start" x="1377.48" y="-907.5" font-family="Times,serif" font-size="14.00"> &#160;&#160;&#160;_msgData(): bytes</text>
<text text-anchor="start" x="1377.48" y="-890.7" font-family="Times,serif" font-size="14.00"> &#160;&#160;&#160;_contextSuffixLength(): uint256</text>
</g>
<!-- 16&#45;&gt;12 -->
<g id="edge16" class="edge">
<title>16&#45;&gt;12</title>
<path fill="none" stroke="black" d="M1524.11,-1049.9C1524.11,-1087.3 1524.11,-1133.1 1524.11,-1177.97"/>
<polygon fill="none" stroke="black" points="1513.61,-1178 1524.11,-1208 1534.61,-1178 1513.61,-1178"/>
</g>
<!-- 17 -->
<g id="node18" class="node">
<title>17</title>
<polygon fill="#f2f2f2" stroke="black" points="1281.64,-372.3 1281.64,-698.7 1766.57,-698.7 1766.57,-372.3 1281.64,-372.3"/>
<text text-anchor="middle" x="1524.11" y="-682.1" font-family="Times,serif" font-size="14.00">&lt;&lt;Abstract&gt;&gt;</text>
<text text-anchor="middle" x="1524.11" y="-665.3" font-family="Times,serif" font-size="14.00">OwnableUpgradeable</text>
<text text-anchor="middle" x="1524.11" y="-648.5" font-family="Times,serif" font-size="14.00">public/flatten/ChainlinkOracleProvider.flatten.sol</text>
<polyline fill="none" stroke="black" points="1281.64,-640.3 1766.57,-640.3 "/>
<text text-anchor="start" x="1289.64" y="-623.7" font-family="Times,serif" font-size="14.00">Private:</text>
<text text-anchor="start" x="1289.64" y="-606.9" font-family="Times,serif" font-size="14.00"> &#160;&#160;OwnableStorageLocation: bytes32</text>
<polyline fill="none" stroke="black" points="1281.64,-598.7 1766.57,-598.7 "/>
<text text-anchor="start" x="1289.64" y="-582.1" font-family="Times,serif" font-size="14.00">Private:</text>
<text text-anchor="start" x="1289.64" y="-565.3" font-family="Times,serif" font-size="14.00"> &#160;&#160;&#160;_getOwnableStorage(): ($: OwnableStorage)</text>
<text text-anchor="start" x="1289.64" y="-548.5" font-family="Times,serif" font-size="14.00">Internal:</text>
<text text-anchor="start" x="1289.64" y="-531.7" font-family="Times,serif" font-size="14.00"> &#160;&#160;&#160;__Ownable_init(initialOwner: address) &lt;&lt;onlyInitializing&gt;&gt;</text>
<text text-anchor="start" x="1289.64" y="-514.9" font-family="Times,serif" font-size="14.00"> &#160;&#160;&#160;__Ownable_init_unchained(initialOwner: address) &lt;&lt;onlyInitializing&gt;&gt;</text>
<text text-anchor="start" x="1289.64" y="-498.1" font-family="Times,serif" font-size="14.00"> &#160;&#160;&#160;_checkOwner()</text>
<text text-anchor="start" x="1289.64" y="-481.3" font-family="Times,serif" font-size="14.00"> &#160;&#160;&#160;_transferOwnership(newOwner: address)</text>
<text text-anchor="start" x="1289.64" y="-464.5" font-family="Times,serif" font-size="14.00">Public:</text>
<text text-anchor="start" x="1289.64" y="-447.7" font-family="Times,serif" font-size="14.00"> &#160;&#160;&#160;&lt;&lt;event&gt;&gt; OwnershipTransferred(previousOwner: address, newOwner: address)</text>
<text text-anchor="start" x="1289.64" y="-430.9" font-family="Times,serif" font-size="14.00"> &#160;&#160;&#160;&lt;&lt;modifier&gt;&gt; onlyOwner()</text>
<text text-anchor="start" x="1289.64" y="-414.1" font-family="Times,serif" font-size="14.00"> &#160;&#160;&#160;owner(): address</text>
<text text-anchor="start" x="1289.64" y="-397.3" font-family="Times,serif" font-size="14.00"> &#160;&#160;&#160;renounceOwnership() &lt;&lt;onlyOwner&gt;&gt;</text>
<text text-anchor="start" x="1289.64" y="-380.5" font-family="Times,serif" font-size="14.00"> &#160;&#160;&#160;transferOwnership(newOwner: address) &lt;&lt;onlyOwner&gt;&gt;</text>
</g>
<!-- 17&#45;&gt;12 -->
<g id="edge18" class="edge">
<title>17&#45;&gt;12</title>
<path fill="none" stroke="black" d="M1388,-698.78C1376.71,-718.61 1367,-739.33 1360.11,-760.4 1331.69,-847.29 1328.27,-1086.1 1360.11,-1171.8 1361.3,-1175.01 1362.58,-1178.21 1363.93,-1181.39"/>
<polygon fill="none" stroke="black" points="1354.55,-1186.11 1377.32,-1208.29 1373.35,-1176.75 1354.55,-1186.11"/>
</g>
<!-- 17&#45;&gt;16 -->
<g id="edge19" class="edge">
<title>17&#45;&gt;16</title>
<path fill="none" stroke="black" d="M1524.11,-698.84C1524.11,-749.91 1524.11,-805.16 1524.11,-852.03"/>
<polygon fill="none" stroke="black" points="1513.61,-852.24 1524.11,-882.24 1534.61,-852.24 1513.61,-852.24"/>
</g>
<!-- 18 -->
<g id="node19" class="node">
<title>18</title>
<polygon fill="#f2f2f2" stroke="black" points="1696.92,-924.5 1696.92,-1007.7 1991.29,-1007.7 1991.29,-924.5 1696.92,-924.5"/>
<text text-anchor="middle" x="1844.11" y="-991.1" font-family="Times,serif" font-size="14.00">&lt;&lt;Struct&gt;&gt;</text>
<text text-anchor="middle" x="1844.11" y="-974.3" font-family="Times,serif" font-size="14.00">OwnableStorage</text>
<text text-anchor="middle" x="1844.11" y="-957.5" font-family="Times,serif" font-size="14.00">public/flatten/ChainlinkOracleProvider.flatten.sol</text>
<polyline fill="none" stroke="black" points="1696.92,-949.3 1991.29,-949.3 "/>
<text text-anchor="start" x="1704.92" y="-932.7" font-family="Times,serif" font-size="14.00">_owner: address</text>
</g>
<!-- 17&#45;&gt;18 -->
<g id="edge20" class="edge">
<title>17&#45;&gt;18</title>
<path fill="none" stroke="black" stroke-dasharray="5,2" d="M1638.74,-698.84C1695.96,-776.21 1761.6,-863.19 1803,-916.05"/>
<polygon fill="black" stroke="black" points="1800.5,-918.54 1809.43,-924.24 1806,-914.21 1800.5,-918.54"/>
</g>
<!-- 18&#45;&gt;17 -->
<g id="edge17" class="edge">
<title>18&#45;&gt;17</title>
<path fill="none" stroke="black" d="M1817.77,-924.24C1782.75,-874.54 1718.58,-787.49 1659.11,-708.44"/>
<polygon fill="black" stroke="black" points="1659.1,-708.43 1652.3,-706.04 1651.88,-698.84 1658.69,-701.23 1659.1,-708.43"/>
</g>
<!-- 19 -->
<g id="node20" class="node">
<title>19</title>
<polygon fill="#f2f2f2" stroke="black" points="2358.88,-760.9 2358.88,-1171.3 2807.33,-1171.3 2807.33,-760.9 2358.88,-760.9"/>
<text text-anchor="middle" x="2583.11" y="-1154.7" font-family="Times,serif" font-size="14.00">&lt;&lt;Library&gt;&gt;</text>
<text text-anchor="middle" x="2583.11" y="-1137.9" font-family="Times,serif" font-size="14.00">ERC1967Utils</text>
<text text-anchor="middle" x="2583.11" y="-1121.1" font-family="Times,serif" font-size="14.00">public/flatten/ChainlinkOracleProvider.flatten.sol</text>
<polyline fill="none" stroke="black" points="2358.88,-1112.9 2807.33,-1112.9 "/>
<text text-anchor="start" x="2366.88" y="-1096.3" font-family="Times,serif" font-size="14.00">Internal:</text>
<text text-anchor="start" x="2366.88" y="-1079.5" font-family="Times,serif" font-size="14.00"> &#160;&#160;IMPLEMENTATION_SLOT: bytes32</text>
<text text-anchor="start" x="2366.88" y="-1062.7" font-family="Times,serif" font-size="14.00"> &#160;&#160;ADMIN_SLOT: bytes32</text>
<text text-anchor="start" x="2366.88" y="-1045.9" font-family="Times,serif" font-size="14.00"> &#160;&#160;BEACON_SLOT: bytes32</text>
<polyline fill="none" stroke="black" points="2358.88,-1037.7 2807.33,-1037.7 "/>
<text text-anchor="start" x="2366.88" y="-1021.1" font-family="Times,serif" font-size="14.00">Private:</text>
<text text-anchor="start" x="2366.88" y="-1004.3" font-family="Times,serif" font-size="14.00"> &#160;&#160;&#160;_setImplementation(newImplementation: address)</text>
<text text-anchor="start" x="2366.88" y="-987.5" font-family="Times,serif" font-size="14.00"> &#160;&#160;&#160;_setAdmin(newAdmin: address)</text>
<text text-anchor="start" x="2366.88" y="-970.7" font-family="Times,serif" font-size="14.00"> &#160;&#160;&#160;_setBeacon(newBeacon: address)</text>
<text text-anchor="start" x="2366.88" y="-953.9" font-family="Times,serif" font-size="14.00"> &#160;&#160;&#160;_checkNonPayable()</text>
<text text-anchor="start" x="2366.88" y="-937.1" font-family="Times,serif" font-size="14.00">Internal:</text>
<text text-anchor="start" x="2366.88" y="-920.3" font-family="Times,serif" font-size="14.00"> &#160;&#160;&#160;getImplementation(): address</text>
<text text-anchor="start" x="2366.88" y="-903.5" font-family="Times,serif" font-size="14.00"> &#160;&#160;&#160;upgradeToAndCall(newImplementation: address, data: bytes)</text>
<text text-anchor="start" x="2366.88" y="-886.7" font-family="Times,serif" font-size="14.00"> &#160;&#160;&#160;getAdmin(): address</text>
<text text-anchor="start" x="2366.88" y="-869.9" font-family="Times,serif" font-size="14.00"> &#160;&#160;&#160;changeAdmin(newAdmin: address)</text>
<text text-anchor="start" x="2366.88" y="-853.1" font-family="Times,serif" font-size="14.00"> &#160;&#160;&#160;getBeacon(): address</text>
<text text-anchor="start" x="2366.88" y="-836.3" font-family="Times,serif" font-size="14.00"> &#160;&#160;&#160;upgradeBeaconToAndCall(newBeacon: address, data: bytes)</text>
<text text-anchor="start" x="2366.88" y="-819.5" font-family="Times,serif" font-size="14.00">Public:</text>
<text text-anchor="start" x="2366.88" y="-802.7" font-family="Times,serif" font-size="14.00"> &#160;&#160;&#160;&lt;&lt;event&gt;&gt; Upgraded(implementation: address)</text>
<text text-anchor="start" x="2366.88" y="-785.9" font-family="Times,serif" font-size="14.00"> &#160;&#160;&#160;&lt;&lt;event&gt;&gt; AdminChanged(previousAdmin: address, newAdmin: address)</text>
<text text-anchor="start" x="2366.88" y="-769.1" font-family="Times,serif" font-size="14.00"> &#160;&#160;&#160;&lt;&lt;event&gt;&gt; BeaconUpgraded(beacon: address)</text>
</g>
<!-- 19&#45;&gt;2 -->
<g id="edge23" class="edge">
<title>19&#45;&gt;2</title>
<path fill="none" stroke="black" stroke-dasharray="5,2" d="M2363.17,-1171.56C2350.26,-1183.79 2337.5,-1195.94 2325.11,-1207.8 2291.65,-1239.84 2254.67,-1276.14 2225.01,-1305.47"/>
<polygon fill="black" stroke="black" points="2222.28,-1303.25 2217.63,-1312.78 2227.2,-1308.23 2222.28,-1303.25"/>
</g>
<!-- 19&#45;&gt;4 -->
<g id="edge22" class="edge">
<title>19&#45;&gt;4</title>
<path fill="none" stroke="black" stroke-dasharray="5,2" d="M2583.11,-1171.54C2583.11,-1193.46 2583.11,-1215.27 2583.11,-1235.88"/>
<polygon fill="black" stroke="black" points="2579.61,-1235.9 2583.11,-1245.9 2586.61,-1235.9 2579.61,-1235.9"/>
</g>
<!-- 19&#45;&gt;5 -->
<g id="edge21" class="edge">
<title>19&#45;&gt;5</title>
<path fill="none" stroke="black" stroke-dasharray="5,2" d="M2803.04,-1171.56C2815.95,-1183.79 2828.72,-1195.94 2841.11,-1207.8 2854.27,-1220.4 2867.97,-1233.66 2881.56,-1246.89"/>
<polygon fill="black" stroke="black" points="2879.49,-1249.76 2889.09,-1254.24 2884.37,-1244.75 2879.49,-1249.76"/>
</g>
<!-- 20 -->
<g id="node21" class="node">
<title>20</title>
<polygon fill="#f2f2f2" stroke="black" points="1882.09,-347.1 1882.09,-723.9 2430.13,-723.9 2430.13,-347.1 1882.09,-347.1"/>
<text text-anchor="middle" x="2156.11" y="-707.3" font-family="Times,serif" font-size="14.00">&lt;&lt;Abstract&gt;&gt;</text>
<text text-anchor="middle" x="2156.11" y="-690.5" font-family="Times,serif" font-size="14.00">UUPSUpgradeable</text>
<text text-anchor="middle" x="2156.11" y="-673.7" font-family="Times,serif" font-size="14.00">public/flatten/ChainlinkOracleProvider.flatten.sol</text>
<polyline fill="none" stroke="black" points="1882.09,-665.5 2430.13,-665.5 "/>
<text text-anchor="start" x="1890.09" y="-648.9" font-family="Times,serif" font-size="14.00">Private:</text>
<text text-anchor="start" x="1890.09" y="-632.1" font-family="Times,serif" font-size="14.00"> &#160;&#160;__self: address</text>
<text text-anchor="start" x="1890.09" y="-615.3" font-family="Times,serif" font-size="14.00">Public:</text>
<text text-anchor="start" x="1890.09" y="-598.5" font-family="Times,serif" font-size="14.00"> &#160;&#160;UPGRADE_INTERFACE_VERSION: string</text>
<polyline fill="none" stroke="black" points="1882.09,-590.3 2430.13,-590.3 "/>
<text text-anchor="start" x="1890.09" y="-573.7" font-family="Times,serif" font-size="14.00">Private:</text>
<text text-anchor="start" x="1890.09" y="-556.9" font-family="Times,serif" font-size="14.00"> &#160;&#160;&#160;_upgradeToAndCallUUPS(newImplementation: address, data: bytes)</text>
<text text-anchor="start" x="1890.09" y="-540.1" font-family="Times,serif" font-size="14.00">Internal:</text>
<text text-anchor="start" x="1890.09" y="-523.3" font-family="Times,serif" font-size="14.00"> &#160;&#160;&#160;&lt;&lt;abstract&gt;&gt; _authorizeUpgrade(newImplementation: address)</text>
<text text-anchor="start" x="1890.09" y="-506.5" font-family="Times,serif" font-size="14.00"> &#160;&#160;&#160;__UUPSUpgradeable_init() &lt;&lt;onlyInitializing&gt;&gt;</text>
<text text-anchor="start" x="1890.09" y="-489.7" font-family="Times,serif" font-size="14.00"> &#160;&#160;&#160;__UUPSUpgradeable_init_unchained() &lt;&lt;onlyInitializing&gt;&gt;</text>
<text text-anchor="start" x="1890.09" y="-472.9" font-family="Times,serif" font-size="14.00"> &#160;&#160;&#160;_checkProxy()</text>
<text text-anchor="start" x="1890.09" y="-456.1" font-family="Times,serif" font-size="14.00"> &#160;&#160;&#160;_checkNotDelegated()</text>
<text text-anchor="start" x="1890.09" y="-439.3" font-family="Times,serif" font-size="14.00">External:</text>
<text text-anchor="start" x="1890.09" y="-422.5" font-family="Times,serif" font-size="14.00"> &#160;&#160;&#160;proxiableUUID(): bytes32 &lt;&lt;notDelegated&gt;&gt;</text>
<text text-anchor="start" x="1890.09" y="-405.7" font-family="Times,serif" font-size="14.00">Public:</text>
<text text-anchor="start" x="1890.09" y="-388.9" font-family="Times,serif" font-size="14.00"> &#160;&#160;&#160;&lt;&lt;payable&gt;&gt; upgradeToAndCall(newImplementation: address, data: bytes) &lt;&lt;onlyProxy&gt;&gt;</text>
<text text-anchor="start" x="1890.09" y="-372.1" font-family="Times,serif" font-size="14.00"> &#160;&#160;&#160;&lt;&lt;modifier&gt;&gt; onlyProxy()</text>
<text text-anchor="start" x="1890.09" y="-355.3" font-family="Times,serif" font-size="14.00"> &#160;&#160;&#160;&lt;&lt;modifier&gt;&gt; notDelegated()</text>
</g>
<!-- 20&#45;&gt;1 -->
<g id="edge25" class="edge">
<title>20&#45;&gt;1</title>
<path fill="none" stroke="black" stroke-dasharray="5,2" d="M2156.11,-724.18C2156.11,-780.83 2156.11,-840 2156.11,-885.52"/>
<polygon fill="none" stroke="black" points="2145.61,-885.68 2156.11,-915.68 2166.61,-885.68 2145.61,-885.68"/>
</g>
<!-- 20&#45;&gt;12 -->
<g id="edge24" class="edge">
<title>20&#45;&gt;12</title>
<path fill="none" stroke="black" d="M2298.07,-724.16C2303.52,-736.08 2308.28,-748.2 2312.11,-760.4 2339.5,-847.62 2372.78,-1103.41 2312.11,-1171.8 2267.55,-1222.03 2077.74,-1193.62 2012.11,-1207.8 1910.52,-1229.75 1799.89,-1263.86 1709.69,-1294.43"/>
<polygon fill="none" stroke="black" points="1706.13,-1284.55 1681.16,-1304.21 1712.94,-1304.41 1706.13,-1284.55"/>
</g>
<!-- 20&#45;&gt;19 -->
<g id="edge26" class="edge">
<title>20&#45;&gt;19</title>
<path fill="none" stroke="black" stroke-dasharray="5,2" d="M2343.09,-724.18C2352.83,-733.96 2362.65,-743.82 2372.46,-753.66"/>
<polygon fill="black" stroke="black" points="2370.06,-756.22 2379.6,-760.83 2375.02,-751.28 2370.06,-756.22"/>
</g>
<!-- 21 -->
<g id="node22" class="node">
<title>21</title>
<polygon fill="#f2f2f2" stroke="black" points="652.9,-0.5 652.9,-310.1 1267.32,-310.1 1267.32,-0.5 652.9,-0.5"/>
<text text-anchor="middle" x="960.11" y="-293.5" font-family="Times,serif" font-size="14.00">ChainlinkOracleProvider</text>
<text text-anchor="middle" x="960.11" y="-276.7" font-family="Times,serif" font-size="14.00">public/flatten/ChainlinkOracleProvider.flatten.sol</text>
<polyline fill="none" stroke="black" points="652.9,-268.5 1267.32,-268.5 "/>
<text text-anchor="start" x="660.9" y="-251.9" font-family="Times,serif" font-size="14.00">Private:</text>
<text text-anchor="start" x="660.9" y="-235.1" font-family="Times,serif" font-size="14.00"> &#160;&#160;GRACE_PERIOD_TIME: uint256</text>
<text text-anchor="start" x="660.9" y="-218.3" font-family="Times,serif" font-size="14.00">Public:</text>
<text text-anchor="start" x="660.9" y="-201.5" font-family="Times,serif" font-size="14.00"> &#160;&#160;sequencerUptimeFeed: AggregatorV3Interface</text>
<text text-anchor="start" x="660.9" y="-184.7" font-family="Times,serif" font-size="14.00"> &#160;&#160;configs: mapping(address=&gt;AssetConfig)</text>
<polyline fill="none" stroke="black" points="652.9,-176.5 1267.32,-176.5 "/>
<text text-anchor="start" x="660.9" y="-159.9" font-family="Times,serif" font-size="14.00">Internal:</text>
<text text-anchor="start" x="660.9" y="-143.1" font-family="Times,serif" font-size="14.00"> &#160;&#160;&#160;_authorizeUpgrade(newImplementation: address) &lt;&lt;onlyOwner&gt;&gt;</text>
<text text-anchor="start" x="660.9" y="-126.3" font-family="Times,serif" font-size="14.00"> &#160;&#160;&#160;_validateSequencerStatus()</text>
<text text-anchor="start" x="660.9" y="-109.5" font-family="Times,serif" font-size="14.00">External:</text>
<text text-anchor="start" x="660.9" y="-92.7" font-family="Times,serif" font-size="14.00"> &#160;&#160;&#160;setAssetConfig(asset: address, feed: AggregatorV3Interface, maxStalePeriod: uint256) &lt;&lt;onlyOwner&gt;&gt;</text>
<text text-anchor="start" x="660.9" y="-75.9" font-family="Times,serif" font-size="14.00"> &#160;&#160;&#160;getPrice(asset: address): uint256</text>
<text text-anchor="start" x="660.9" y="-59.1" font-family="Times,serif" font-size="14.00">Public:</text>
<text text-anchor="start" x="660.9" y="-42.3" font-family="Times,serif" font-size="14.00"> &#160;&#160;&#160;&lt;&lt;event&gt;&gt; AssetConfigSet(asset: address, feed: AggregatorV3Interface, maxStalePeriod: uint256)</text>
<text text-anchor="start" x="660.9" y="-25.5" font-family="Times,serif" font-size="14.00"> &#160;&#160;&#160;constructor(_sequencerUptimeFeed: AggregatorV3Interface)</text>
<text text-anchor="start" x="660.9" y="-8.7" font-family="Times,serif" font-size="14.00"> &#160;&#160;&#160;initialize(owner: address) &lt;&lt;initializer&gt;&gt;</text>
</g>
<!-- 21&#45;&gt;0 -->
<g id="edge31" class="edge">
<title>21&#45;&gt;0</title>
<path fill="none" stroke="black" d="M652.71,-214.22C515.89,-246.85 376.51,-292.04 336.11,-346.6 221.17,-501.81 295.42,-742.53 350.41,-873.17"/>
<polygon fill="black" stroke="black" points="347.2,-874.56 354.34,-882.38 353.64,-871.81 347.2,-874.56"/>
</g>
<!-- 21&#45;&gt;14 -->
<g id="edge28" class="edge">
<title>21&#45;&gt;14</title>
<path fill="none" stroke="black" stroke-dasharray="5,2" d="M693.63,-310.27C677.82,-322.01 662.51,-334.15 648.11,-346.6 609.27,-380.17 572.28,-424.01 544.08,-460.9"/>
<polygon fill="none" stroke="black" points="535.54,-454.78 526.04,-485.11 552.38,-467.33 535.54,-454.78"/>
</g>
<!-- 21&#45;&gt;15 -->
<g id="edge33" class="edge">
<title>21&#45;&gt;15</title>
<path fill="none" stroke="black" stroke-dasharray="5,2" d="M1023.56,-310.13C1044.73,-361.46 1067.39,-416.39 1084.99,-459.05"/>
<polygon fill="black" stroke="black" points="1081.84,-460.6 1088.89,-468.51 1088.31,-457.94 1081.84,-460.6"/>
</g>
<!-- 21&#45;&gt;17 -->
<g id="edge30" class="edge">
<title>21&#45;&gt;17</title>
<path fill="none" stroke="black" d="M1216.73,-310.18C1235.6,-322.3 1254.23,-334.52 1272.11,-346.6 1276.21,-349.37 1280.34,-352.18 1284.48,-355.03"/>
<polygon fill="none" stroke="black" points="1278.61,-363.73 1309.23,-372.23 1290.59,-346.49 1278.61,-363.73"/>
</g>
<!-- 21&#45;&gt;20 -->
<g id="edge29" class="edge">
<title>21&#45;&gt;20</title>
<path fill="none" stroke="black" d="M1267.74,-210.8C1422.4,-242.54 1611.29,-287.96 1775.11,-346.6 1801.26,-355.96 1827.97,-366.64 1854.5,-378.04"/>
<polygon fill="none" stroke="black" points="1850.36,-387.69 1882.05,-390.15 1858.81,-368.47 1850.36,-387.69"/>
</g>
<!-- 22 -->
<g id="node23" class="node">
<title>22</title>
<polygon fill="#f2f2f2" stroke="black" points="656.92,-485.5 656.92,-585.5 951.29,-585.5 951.29,-485.5 656.92,-485.5"/>
<text text-anchor="middle" x="804.11" y="-568.9" font-family="Times,serif" font-size="14.00">&lt;&lt;Struct&gt;&gt;</text>
<text text-anchor="middle" x="804.11" y="-552.1" font-family="Times,serif" font-size="14.00">AssetConfig</text>
<text text-anchor="middle" x="804.11" y="-535.3" font-family="Times,serif" font-size="14.00">public/flatten/ChainlinkOracleProvider.flatten.sol</text>
<polyline fill="none" stroke="black" points="656.92,-527.1 951.29,-527.1 "/>
<text text-anchor="start" x="664.92" y="-510.5" font-family="Times,serif" font-size="14.00">feed: AggregatorV3Interface</text>
<text text-anchor="start" x="664.92" y="-493.7" font-family="Times,serif" font-size="14.00">maxStalePeriod: uint256</text>
</g>
<!-- 21&#45;&gt;22 -->
<g id="edge32" class="edge">
<title>21&#45;&gt;22</title>
<path fill="none" stroke="black" d="M890.01,-310.13C865.61,-368.43 840.18,-431.37 823.31,-475.7"/>
<polygon fill="black" stroke="black" points="820,-474.56 819.73,-485.15 826.54,-477.04 820,-474.56"/>
</g>
<!-- 22&#45;&gt;0 -->
<g id="edge34" class="edge">
<title>22&#45;&gt;0</title>
<path fill="none" stroke="black" stroke-dasharray="5,2" d="M765.89,-585.74C735.21,-624.45 690.42,-679.22 648.11,-724.4 599.43,-776.38 542.07,-831.23 494.19,-875.42"/>
<polygon fill="black" stroke="black" points="491.57,-873.07 486.59,-882.42 496.31,-878.22 491.57,-873.07"/>
</g>
<!-- 22&#45;&gt;21 -->
<g id="edge27" class="edge">
<title>22&#45;&gt;21</title>
<path fill="none" stroke="black" d="M829.19,-485.15C848,-443.32 874.43,-380.85 898.65,-321.55"/>
<polygon fill="black" stroke="black" points="898.77,-321.24 897.33,-314.18 903.3,-310.13 904.74,-317.19 898.77,-321.24"/>
</g>
</g>
</svg>
