<?xml version="1.0" encoding="UTF-8" standalone="no"?>
<!DOCTYPE svg PUBLIC "-//W3C//DTD SVG 1.1//EN"
 "http://www.w3.org/Graphics/SVG/1.1/DTD/svg11.dtd">
<!-- Generated by graphviz version 5.0.0 (20220707.1540)
 -->
<!-- Title: UmlClassDiagram Pages: 1 -->
<svg width="2085pt" height="956pt"
 viewBox="0.00 0.00 2085.37 956.00" xmlns="http://www.w3.org/2000/svg" xmlns:xlink="http://www.w3.org/1999/xlink">
<g id="graph0" class="graph" transform="scale(1 1) rotate(0) translate(4 952)">
<title>UmlClassDiagram</title>
<polygon fill="white" stroke="transparent" points="-4,4 -4,-952 2081.37,-952 2081.37,4 -4,4"/>
<!-- 0 -->
<g id="node1" class="node">
<title>0</title>
<polygon fill="#f2f2f2" stroke="black" points="145.64,-137.5 145.64,-447.1 459.41,-447.1 459.41,-137.5 145.64,-137.5"/>
<text text-anchor="middle" x="302.53" y="-430.5" font-family="Times,serif" font-size="14.00">&lt;&lt;Abstract&gt;&gt;</text>
<text text-anchor="middle" x="302.53" y="-413.7" font-family="Times,serif" font-size="14.00">Initializable</text>
<text text-anchor="middle" x="302.53" y="-396.9" font-family="Times,serif" font-size="14.00">public/flatten/InitialModuleBundle.flatten.sol</text>
<polyline fill="none" stroke="black" points="145.64,-388.7 459.41,-388.7 "/>
<text text-anchor="start" x="153.64" y="-372.1" font-family="Times,serif" font-size="14.00">Private:</text>
<text text-anchor="start" x="153.64" y="-355.3" font-family="Times,serif" font-size="14.00"> &#160;&#160;INITIALIZABLE_STORAGE: bytes32</text>
<polyline fill="none" stroke="black" points="145.64,-347.1 459.41,-347.1 "/>
<text text-anchor="start" x="153.64" y="-330.5" font-family="Times,serif" font-size="14.00">Private:</text>
<text text-anchor="start" x="153.64" y="-313.7" font-family="Times,serif" font-size="14.00"> &#160;&#160;&#160;_getInitializableStorage(): ($: InitializableStorage)</text>
<text text-anchor="start" x="153.64" y="-296.9" font-family="Times,serif" font-size="14.00">Internal:</text>
<text text-anchor="start" x="153.64" y="-280.1" font-family="Times,serif" font-size="14.00"> &#160;&#160;&#160;_checkInitializing()</text>
<text text-anchor="start" x="153.64" y="-263.3" font-family="Times,serif" font-size="14.00"> &#160;&#160;&#160;_disableInitializers()</text>
<text text-anchor="start" x="153.64" y="-246.5" font-family="Times,serif" font-size="14.00"> &#160;&#160;&#160;_getInitializedVersion(): uint64</text>
<text text-anchor="start" x="153.64" y="-229.7" font-family="Times,serif" font-size="14.00"> &#160;&#160;&#160;_isInitializing(): bool</text>
<text text-anchor="start" x="153.64" y="-212.9" font-family="Times,serif" font-size="14.00">Public:</text>
<text text-anchor="start" x="153.64" y="-196.1" font-family="Times,serif" font-size="14.00"> &#160;&#160;&#160;&lt;&lt;event&gt;&gt; Initialized(version: uint64)</text>
<text text-anchor="start" x="153.64" y="-179.3" font-family="Times,serif" font-size="14.00"> &#160;&#160;&#160;&lt;&lt;modifier&gt;&gt; initializer()</text>
<text text-anchor="start" x="153.64" y="-162.5" font-family="Times,serif" font-size="14.00"> &#160;&#160;&#160;&lt;&lt;modifier&gt;&gt; reinitializer(version: uint64)</text>
<text text-anchor="start" x="153.64" y="-145.7" font-family="Times,serif" font-size="14.00"> &#160;&#160;&#160;&lt;&lt;modifier&gt;&gt; onlyInitializing()</text>
</g>
<!-- 1 -->
<g id="node2" class="node">
<title>1</title>
<polygon fill="#f2f2f2" stroke="black" points="0,-551.3 0,-651.3 271.06,-651.3 271.06,-551.3 0,-551.3"/>
<text text-anchor="middle" x="135.53" y="-634.7" font-family="Times,serif" font-size="14.00">&lt;&lt;Struct&gt;&gt;</text>
<text text-anchor="middle" x="135.53" y="-617.9" font-family="Times,serif" font-size="14.00">InitializableStorage</text>
<text text-anchor="middle" x="135.53" y="-601.1" font-family="Times,serif" font-size="14.00">public/flatten/InitialModuleBundle.flatten.sol</text>
<polyline fill="none" stroke="black" points="0,-592.9 271.06,-592.9 "/>
<text text-anchor="start" x="8" y="-576.3" font-family="Times,serif" font-size="14.00">_initialized: uint64</text>
<text text-anchor="start" x="8" y="-559.5" font-family="Times,serif" font-size="14.00">_initializing: bool</text>
</g>
<!-- 0&#45;&gt;1 -->
<g id="edge2" class="edge">
<title>0&#45;&gt;1</title>
<path fill="none" stroke="black" stroke-dasharray="5,2" d="M212.03,-447.25C193.61,-481.12 175.64,-514.97 161.72,-542.18"/>
<polygon fill="black" stroke="black" points="158.57,-540.65 157.16,-551.15 164.81,-543.82 158.57,-540.65"/>
</g>
<!-- 1&#45;&gt;0 -->
<g id="edge1" class="edge">
<title>1&#45;&gt;0</title>
<path fill="none" stroke="black" d="M167.37,-551.15C182.43,-525.29 201.11,-491.93 219.75,-457.84"/>
<polygon fill="black" stroke="black" points="219.79,-457.78 219.15,-450.6 225.53,-447.25 226.17,-454.43 219.79,-457.78"/>
</g>
<!-- 2 -->
<g id="node3" class="node">
<title>2</title>
<polygon fill="#f2f2f2" stroke="black" points="1024,-0.5 1024,-100.5 1295.06,-100.5 1295.06,-0.5 1024,-0.5"/>
<text text-anchor="middle" x="1159.53" y="-83.9" font-family="Times,serif" font-size="14.00">&lt;&lt;Library&gt;&gt;</text>
<text text-anchor="middle" x="1159.53" y="-67.1" font-family="Times,serif" font-size="14.00">CommonError</text>
<text text-anchor="middle" x="1159.53" y="-50.3" font-family="Times,serif" font-size="14.00">public/flatten/InitialModuleBundle.flatten.sol</text>
<polyline fill="none" stroke="black" points="1024,-42.1 1295.06,-42.1 "/>
<text text-anchor="start" x="1032" y="-25.5" font-family="Times,serif" font-size="14.00">Internal:</text>
<text text-anchor="start" x="1032" y="-8.7" font-family="Times,serif" font-size="14.00"> &#160;&#160;NO_ERROR: uint256</text>
</g>
<!-- 3 -->
<g id="node4" class="node">
<title>3</title>
<polygon fill="#f2f2f2" stroke="black" points="288.66,-484.1 288.66,-718.5 704.4,-718.5 704.4,-484.1 288.66,-484.1"/>
<text text-anchor="middle" x="496.53" y="-701.9" font-family="Times,serif" font-size="14.00">&lt;&lt;Interface&gt;&gt;</text>
<text text-anchor="middle" x="496.53" y="-685.1" font-family="Times,serif" font-size="14.00">IOwnable</text>
<text text-anchor="middle" x="496.53" y="-668.3" font-family="Times,serif" font-size="14.00">public/flatten/InitialModuleBundle.flatten.sol</text>
<polyline fill="none" stroke="black" points="288.66,-660.1 704.4,-660.1 "/>
<text text-anchor="start" x="296.66" y="-643.5" font-family="Times,serif" font-size="14.00">External:</text>
<text text-anchor="start" x="296.66" y="-626.7" font-family="Times,serif" font-size="14.00"> &#160;&#160;&#160;&#160;acceptOwnership()</text>
<text text-anchor="start" x="296.66" y="-609.9" font-family="Times,serif" font-size="14.00"> &#160;&#160;&#160;&#160;nominateNewOwner(newNominatedOwner: address)</text>
<text text-anchor="start" x="296.66" y="-593.1" font-family="Times,serif" font-size="14.00"> &#160;&#160;&#160;&#160;renounceNomination()</text>
<text text-anchor="start" x="296.66" y="-576.3" font-family="Times,serif" font-size="14.00"> &#160;&#160;&#160;&#160;renounceOwnership()</text>
<text text-anchor="start" x="296.66" y="-559.5" font-family="Times,serif" font-size="14.00"> &#160;&#160;&#160;&#160;owner(): address</text>
<text text-anchor="start" x="296.66" y="-542.7" font-family="Times,serif" font-size="14.00"> &#160;&#160;&#160;&#160;pendingOwner(): address</text>
<text text-anchor="start" x="296.66" y="-525.9" font-family="Times,serif" font-size="14.00">Public:</text>
<text text-anchor="start" x="296.66" y="-509.1" font-family="Times,serif" font-size="14.00"> &#160;&#160;&#160;&lt;&lt;event&gt;&gt; OwnerNominated(newOwner: address)</text>
<text text-anchor="start" x="296.66" y="-492.3" font-family="Times,serif" font-size="14.00"> &#160;&#160;&#160;&lt;&lt;event&gt;&gt; OwnerChanged(oldOwner: address, newOwner: address)</text>
</g>
<!-- 4 -->
<g id="node5" class="node">
<title>4</title>
<polygon fill="#f2f2f2" stroke="black" points="1299.65,-517.7 1299.65,-684.9 1673.41,-684.9 1673.41,-517.7 1299.65,-517.7"/>
<text text-anchor="middle" x="1486.53" y="-668.3" font-family="Times,serif" font-size="14.00">&lt;&lt;Interface&gt;&gt;</text>
<text text-anchor="middle" x="1486.53" y="-651.5" font-family="Times,serif" font-size="14.00">IUpgrade</text>
<text text-anchor="middle" x="1486.53" y="-634.7" font-family="Times,serif" font-size="14.00">public/flatten/InitialModuleBundle.flatten.sol</text>
<polyline fill="none" stroke="black" points="1299.65,-626.5 1673.41,-626.5 "/>
<text text-anchor="start" x="1307.65" y="-609.9" font-family="Times,serif" font-size="14.00">External:</text>
<text text-anchor="start" x="1307.65" y="-593.1" font-family="Times,serif" font-size="14.00"> &#160;&#160;&#160;&#160;upgradeTo(newImplementation: address)</text>
<text text-anchor="start" x="1307.65" y="-576.3" font-family="Times,serif" font-size="14.00"> &#160;&#160;&#160;&#160;simulateUpgradeTo(newImplementation: address)</text>
<text text-anchor="start" x="1307.65" y="-559.5" font-family="Times,serif" font-size="14.00"> &#160;&#160;&#160;&#160;getImplementation(): address</text>
<text text-anchor="start" x="1307.65" y="-542.7" font-family="Times,serif" font-size="14.00">Public:</text>
<text text-anchor="start" x="1307.65" y="-525.9" font-family="Times,serif" font-size="14.00"> &#160;&#160;&#160;&lt;&lt;event&gt;&gt; Upgraded(self: address, implementation: address)</text>
</g>
<!-- 5 -->
<g id="node6" class="node">
<title>5</title>
<polygon fill="#f2f2f2" stroke="black" points="990.01,-755.5 990.01,-947.5 1303.04,-947.5 1303.04,-755.5 990.01,-755.5"/>
<text text-anchor="middle" x="1146.53" y="-930.9" font-family="Times,serif" font-size="14.00">&lt;&lt;Abstract&gt;&gt;</text>
<text text-anchor="middle" x="1146.53" y="-914.1" font-family="Times,serif" font-size="14.00">OwnableStorage</text>
<text text-anchor="middle" x="1146.53" y="-897.3" font-family="Times,serif" font-size="14.00">public/flatten/InitialModuleBundle.flatten.sol</text>
<polyline fill="none" stroke="black" points="990.01,-889.1 1303.04,-889.1 "/>
<text text-anchor="start" x="998.01" y="-872.5" font-family="Times,serif" font-size="14.00">Private:</text>
<text text-anchor="start" x="998.01" y="-855.7" font-family="Times,serif" font-size="14.00"> &#160;&#160;_SLOT_OWNABLE_STORAGE: bytes32</text>
<polyline fill="none" stroke="black" points="990.01,-847.5 1303.04,-847.5 "/>
<text text-anchor="start" x="998.01" y="-830.9" font-family="Times,serif" font-size="14.00">Internal:</text>
<text text-anchor="start" x="998.01" y="-814.1" font-family="Times,serif" font-size="14.00"> &#160;&#160;&#160;_checkOwner()</text>
<text text-anchor="start" x="998.01" y="-797.3" font-family="Times,serif" font-size="14.00"> &#160;&#160;&#160;_owner(): address</text>
<text text-anchor="start" x="998.01" y="-780.5" font-family="Times,serif" font-size="14.00"> &#160;&#160;&#160;_pendingOwner(): address</text>
<text text-anchor="start" x="998.01" y="-763.7" font-family="Times,serif" font-size="14.00"> &#160;&#160;&#160;_getOwnableStorage(): ($: Ownable2StepStorage)</text>
</g>
<!-- 6 -->
<g id="node7" class="node">
<title>6</title>
<polygon fill="#f2f2f2" stroke="black" points="722,-551.3 722,-651.3 993.06,-651.3 993.06,-551.3 722,-551.3"/>
<text text-anchor="middle" x="857.53" y="-634.7" font-family="Times,serif" font-size="14.00">&lt;&lt;Struct&gt;&gt;</text>
<text text-anchor="middle" x="857.53" y="-617.9" font-family="Times,serif" font-size="14.00">Ownable2StepStorage</text>
<text text-anchor="middle" x="857.53" y="-601.1" font-family="Times,serif" font-size="14.00">public/flatten/InitialModuleBundle.flatten.sol</text>
<polyline fill="none" stroke="black" points="722,-592.9 993.06,-592.9 "/>
<text text-anchor="start" x="730" y="-576.3" font-family="Times,serif" font-size="14.00">owner: address</text>
<text text-anchor="start" x="730" y="-559.5" font-family="Times,serif" font-size="14.00">pendingOwner: address</text>
</g>
<!-- 5&#45;&gt;6 -->
<g id="edge4" class="edge">
<title>5&#45;&gt;6</title>
<path fill="none" stroke="black" stroke-dasharray="5,2" d="M1042.3,-755.33C1004.42,-722.47 962.55,-686.75 928.23,-658.09"/>
<polygon fill="black" stroke="black" points="930.05,-655.05 920.13,-651.34 925.57,-660.43 930.05,-655.05"/>
</g>
<!-- 6&#45;&gt;5 -->
<g id="edge3" class="edge">
<title>6&#45;&gt;5</title>
<path fill="none" stroke="black" d="M909.12,-651.34C940.05,-678.8 980.8,-714.13 1019.79,-747.38"/>
<polygon fill="black" stroke="black" points="1020,-747.55 1027.16,-748.4 1029.13,-755.33 1021.97,-754.49 1020,-747.55"/>
</g>
<!-- 7 -->
<g id="node8" class="node">
<title>7</title>
<polygon fill="#f2f2f2" stroke="black" points="1729.46,-538.9 1729.46,-663.7 2031.59,-663.7 2031.59,-538.9 1729.46,-538.9"/>
<text text-anchor="middle" x="1880.53" y="-647.1" font-family="Times,serif" font-size="14.00">UpgradeStorage</text>
<text text-anchor="middle" x="1880.53" y="-630.3" font-family="Times,serif" font-size="14.00">public/flatten/InitialModuleBundle.flatten.sol</text>
<polyline fill="none" stroke="black" points="1729.46,-622.1 2031.59,-622.1 "/>
<text text-anchor="start" x="1737.46" y="-605.5" font-family="Times,serif" font-size="14.00">Internal:</text>
<text text-anchor="start" x="1737.46" y="-588.7" font-family="Times,serif" font-size="14.00"> &#160;&#160;_IMPLEMENTATION_SLOT: bytes32</text>
<polyline fill="none" stroke="black" points="1729.46,-580.5 2031.59,-580.5 "/>
<text text-anchor="start" x="1737.46" y="-563.9" font-family="Times,serif" font-size="14.00">Internal:</text>
<text text-anchor="start" x="1737.46" y="-547.1" font-family="Times,serif" font-size="14.00"> &#160;&#160;&#160;_getImplementationStorage(): (data: ProxyData)</text>
</g>
<!-- 8 -->
<g id="node9" class="node">
<title>8</title>
<polygon fill="#f2f2f2" stroke="black" points="1745,-801.5 1745,-901.5 2016.06,-901.5 2016.06,-801.5 1745,-801.5"/>
<text text-anchor="middle" x="1880.53" y="-884.9" font-family="Times,serif" font-size="14.00">&lt;&lt;Struct&gt;&gt;</text>
<text text-anchor="middle" x="1880.53" y="-868.1" font-family="Times,serif" font-size="14.00">ProxyData</text>
<text text-anchor="middle" x="1880.53" y="-851.3" font-family="Times,serif" font-size="14.00">public/flatten/InitialModuleBundle.flatten.sol</text>
<polyline fill="none" stroke="black" points="1745,-843.1 2016.06,-843.1 "/>
<text text-anchor="start" x="1753" y="-826.5" font-family="Times,serif" font-size="14.00">implementation: address</text>
<text text-anchor="start" x="1753" y="-809.7" font-family="Times,serif" font-size="14.00">simulatingUpgrade: bool</text>
</g>
<!-- 7&#45;&gt;8 -->
<g id="edge6" class="edge">
<title>7&#45;&gt;8</title>
<path fill="none" stroke="black" stroke-dasharray="5,2" d="M1874.6,-663.97C1873.48,-702.85 1873.5,-752.78 1874.67,-791.2"/>
<polygon fill="black" stroke="black" points="1871.18,-791.33 1875.01,-801.21 1878.17,-791.09 1871.18,-791.33"/>
</g>
<!-- 8&#45;&gt;7 -->
<g id="edge5" class="edge">
<title>8&#45;&gt;7</title>
<path fill="none" stroke="black" d="M1886.04,-801.21C1887.4,-765.49 1887.64,-716.58 1886.76,-676.21"/>
<polygon fill="black" stroke="black" points="1886.76,-675.97 1882.61,-670.07 1886.45,-663.97 1890.6,-669.87 1886.76,-675.97"/>
</g>
<!-- 9 -->
<g id="node10" class="node">
<title>9</title>
<polygon fill="#f2f2f2" stroke="black" points="1011,-559.7 1011,-642.9 1282.06,-642.9 1282.06,-559.7 1011,-559.7"/>
<text text-anchor="middle" x="1146.53" y="-626.3" font-family="Times,serif" font-size="14.00">OwnableMixin</text>
<text text-anchor="middle" x="1146.53" y="-609.5" font-family="Times,serif" font-size="14.00">public/flatten/InitialModuleBundle.flatten.sol</text>
<polyline fill="none" stroke="black" points="1011,-601.3 1282.06,-601.3 "/>
<text text-anchor="start" x="1019" y="-584.7" font-family="Times,serif" font-size="14.00">Public:</text>
<text text-anchor="start" x="1019" y="-567.9" font-family="Times,serif" font-size="14.00"> &#160;&#160;&#160;&lt;&lt;modifier&gt;&gt; onlyOwner()</text>
</g>
<!-- 9&#45;&gt;5 -->
<g id="edge7" class="edge">
<title>9&#45;&gt;5</title>
<path fill="none" stroke="black" d="M1146.53,-643.01C1146.53,-665.73 1146.53,-695.41 1146.53,-725.17"/>
<polygon fill="none" stroke="black" points="1136.03,-725.33 1146.53,-755.33 1157.03,-725.33 1136.03,-725.33"/>
</g>
<!-- 10 -->
<g id="node11" class="node">
<title>10</title>
<polygon fill="#f2f2f2" stroke="black" points="644.02,-200.3 644.02,-384.3 1071.04,-384.3 1071.04,-200.3 644.02,-200.3"/>
<text text-anchor="middle" x="857.53" y="-367.7" font-family="Times,serif" font-size="14.00">OwnableModule</text>
<text text-anchor="middle" x="857.53" y="-350.9" font-family="Times,serif" font-size="14.00">public/flatten/InitialModuleBundle.flatten.sol</text>
<polyline fill="none" stroke="black" points="644.02,-342.7 1071.04,-342.7 "/>
<text text-anchor="start" x="652.02" y="-326.1" font-family="Times,serif" font-size="14.00">External:</text>
<text text-anchor="start" x="652.02" y="-309.3" font-family="Times,serif" font-size="14.00"> &#160;&#160;&#160;renounceNomination()</text>
<text text-anchor="start" x="652.02" y="-292.5" font-family="Times,serif" font-size="14.00"> &#160;&#160;&#160;renounceOwnership() &lt;&lt;onlyOwner&gt;&gt;</text>
<text text-anchor="start" x="652.02" y="-275.7" font-family="Times,serif" font-size="14.00">Public:</text>
<text text-anchor="start" x="652.02" y="-258.9" font-family="Times,serif" font-size="14.00"> &#160;&#160;&#160;acceptOwnership()</text>
<text text-anchor="start" x="652.02" y="-242.1" font-family="Times,serif" font-size="14.00"> &#160;&#160;&#160;nominateNewOwner(newNominatedOwner: address) &lt;&lt;onlyOwner&gt;&gt;</text>
<text text-anchor="start" x="652.02" y="-225.3" font-family="Times,serif" font-size="14.00"> &#160;&#160;&#160;owner(): address</text>
<text text-anchor="start" x="652.02" y="-208.5" font-family="Times,serif" font-size="14.00"> &#160;&#160;&#160;pendingOwner(): address</text>
</g>
<!-- 10&#45;&gt;3 -->
<g id="edge8" class="edge">
<title>10&#45;&gt;3</title>
<path fill="none" stroke="black" stroke-dasharray="5,2" d="M750.19,-384.58C720.67,-409.68 688.01,-437.46 656.22,-464.49"/>
<polygon fill="none" stroke="black" points="649.34,-456.56 633.29,-484 662.94,-472.56 649.34,-456.56"/>
</g>
<!-- 10&#45;&gt;6 -->
<g id="edge10" class="edge">
<title>10&#45;&gt;6</title>
<path fill="none" stroke="black" stroke-dasharray="5,2" d="M857.53,-384.58C857.53,-435.25 857.53,-496.8 857.53,-541.17"/>
<polygon fill="black" stroke="black" points="854.03,-541.21 857.53,-551.21 861.03,-541.21 854.03,-541.21"/>
</g>
<!-- 10&#45;&gt;9 -->
<g id="edge9" class="edge">
<title>10&#45;&gt;9</title>
<path fill="none" stroke="black" d="M943.45,-384.58C989.86,-433.87 1045.96,-493.47 1087.43,-537.52"/>
<polygon fill="none" stroke="black" points="1080.02,-544.96 1108.22,-559.61 1095.31,-530.57 1080.02,-544.96"/>
</g>
<!-- 11 -->
<g id="node12" class="node">
<title>11</title>
<polygon fill="#f2f2f2" stroke="black" points="1499.14,-191.9 1499.14,-392.7 1903.92,-392.7 1903.92,-191.9 1499.14,-191.9"/>
<text text-anchor="middle" x="1701.53" y="-376.1" font-family="Times,serif" font-size="14.00">UpgradeModule</text>
<text text-anchor="middle" x="1701.53" y="-359.3" font-family="Times,serif" font-size="14.00">public/flatten/InitialModuleBundle.flatten.sol</text>
<polyline fill="none" stroke="black" points="1499.14,-351.1 1903.92,-351.1 "/>
<text text-anchor="start" x="1507.14" y="-334.5" font-family="Times,serif" font-size="14.00">Internal:</text>
<text text-anchor="start" x="1507.14" y="-317.7" font-family="Times,serif" font-size="14.00"> &#160;&#160;&#160;_upgradeTo(newImplementation: address)</text>
<text text-anchor="start" x="1507.14" y="-300.9" font-family="Times,serif" font-size="14.00"> &#160;&#160;&#160;_implementationIsSterile(candidateImplementation: address): bool</text>
<text text-anchor="start" x="1507.14" y="-284.1" font-family="Times,serif" font-size="14.00"> &#160;&#160;&#160;isContract(account: address): bool</text>
<text text-anchor="start" x="1507.14" y="-267.3" font-family="Times,serif" font-size="14.00">External:</text>
<text text-anchor="start" x="1507.14" y="-250.5" font-family="Times,serif" font-size="14.00"> &#160;&#160;&#160;getImplementation(): address</text>
<text text-anchor="start" x="1507.14" y="-233.7" font-family="Times,serif" font-size="14.00">Public:</text>
<text text-anchor="start" x="1507.14" y="-216.9" font-family="Times,serif" font-size="14.00"> &#160;&#160;&#160;upgradeTo(newImplementation: address)</text>
<text text-anchor="start" x="1507.14" y="-200.1" font-family="Times,serif" font-size="14.00"> &#160;&#160;&#160;simulateUpgradeTo(newImplementation: address)</text>
</g>
<!-- 11&#45;&gt;4 -->
<g id="edge11" class="edge">
<title>11&#45;&gt;4</title>
<path fill="none" stroke="black" stroke-dasharray="5,2" d="M1631.72,-392.97C1609.36,-424.91 1584.51,-460.4 1561.77,-492.86"/>
<polygon fill="none" stroke="black" points="1553.09,-486.95 1544.48,-517.55 1570.29,-499 1553.09,-486.95"/>
</g>
<!-- 11&#45;&gt;5 -->
<g id="edge13" class="edge">
<title>11&#45;&gt;5</title>
<path fill="none" stroke="black" d="M1710.35,-393.09C1717.83,-503.15 1721.9,-671.04 1682.53,-719 1638.08,-773.15 1469.52,-808.34 1333.14,-828.57"/>
<polygon fill="none" stroke="black" points="1331.47,-818.2 1303.26,-832.84 1334.44,-838.99 1331.47,-818.2"/>
</g>
<!-- 11&#45;&gt;7 -->
<g id="edge12" class="edge">
<title>11&#45;&gt;7</title>
<path fill="none" stroke="black" d="M1759.64,-392.97C1782.1,-431.48 1807.57,-475.17 1829.32,-512.47"/>
<polygon fill="none" stroke="black" points="1820.4,-518.02 1844.58,-538.65 1838.54,-507.44 1820.4,-518.02"/>
</g>
<!-- 11&#45;&gt;8 -->
<g id="edge14" class="edge">
<title>11&#45;&gt;8</title>
<path fill="none" stroke="black" stroke-dasharray="5,2" d="M1904.25,-362.74C1957.98,-391.45 2009.58,-430.74 2040.53,-483.6 2093.39,-573.89 2085.23,-624.41 2040.53,-719 2026.26,-749.2 2001.28,-774.79 1975.24,-795.15"/>
<polygon fill="black" stroke="black" points="1972.99,-792.47 1967.13,-801.3 1977.22,-798.05 1972.99,-792.47"/>
</g>
<!-- 12 -->
<g id="node13" class="node">
<title>12</title>
<polygon fill="#f2f2f2" stroke="black" points="708.95,-0.5 708.95,-100.5 1006.11,-100.5 1006.11,-0.5 708.95,-0.5"/>
<text text-anchor="middle" x="857.53" y="-83.9" font-family="Times,serif" font-size="14.00">InitialModuleBundle</text>
<text text-anchor="middle" x="857.53" y="-67.1" font-family="Times,serif" font-size="14.00">public/flatten/InitialModuleBundle.flatten.sol</text>
<polyline fill="none" stroke="black" points="708.95,-58.9 1006.11,-58.9 "/>
<text text-anchor="start" x="716.95" y="-42.3" font-family="Times,serif" font-size="14.00">Public:</text>
<text text-anchor="start" x="716.95" y="-25.5" font-family="Times,serif" font-size="14.00"> &#160;&#160;&#160;constructor()</text>
<text text-anchor="start" x="716.95" y="-8.7" font-family="Times,serif" font-size="14.00"> &#160;&#160;&#160;initialize(initialOwner: address) &lt;&lt;initializer&gt;&gt;</text>
</g>
<!-- 12&#45;&gt;0 -->
<g id="edge17" class="edge">
<title>12&#45;&gt;0</title>
<path fill="none" stroke="black" d="M725.15,-100.53C695.19,-112.1 663.64,-124.67 634.53,-137 586.22,-157.46 534.56,-180.76 486.72,-202.95"/>
<polygon fill="none" stroke="black" points="482.19,-193.48 459.43,-215.67 491.06,-212.51 482.19,-193.48"/>
</g>
<!-- 12&#45;&gt;10 -->
<g id="edge15" class="edge">
<title>12&#45;&gt;10</title>
<path fill="none" stroke="black" d="M857.53,-100.61C857.53,-120.85 857.53,-145.3 857.53,-169.83"/>
<polygon fill="none" stroke="black" points="847.03,-170.08 857.53,-200.08 868.03,-170.08 847.03,-170.08"/>
</g>
<!-- 12&#45;&gt;11 -->
<g id="edge16" class="edge">
<title>12&#45;&gt;11</title>
<path fill="none" stroke="black" d="M1006.24,-98.53C1009.02,-99.37 1011.79,-100.19 1014.53,-101 1165.56,-145.71 1336.21,-193 1469.65,-229.25"/>
<polygon fill="none" stroke="black" points="1467.13,-239.45 1498.84,-237.17 1472.63,-219.18 1467.13,-239.45"/>
</g>
</g>
</svg>
