<?xml version="1.0" encoding="UTF-8" standalone="no"?>
<!DOCTYPE svg PUBLIC "-//W3C//DTD SVG 1.1//EN"
 "http://www.w3.org/Graphics/SVG/1.1/DTD/svg11.dtd">
<!-- Generated by graphviz version 5.0.0 (20220707.1540)
 -->
<!-- Title: UmlClassDiagram Pages: 1 -->
<svg width="956pt" height="693pt"
 viewBox="0.00 0.00 955.73 693.40" xmlns="http://www.w3.org/2000/svg" xmlns:xlink="http://www.w3.org/1999/xlink">
<g id="graph0" class="graph" transform="scale(1 1) rotate(0) translate(4 689.4)">
<title>UmlClassDiagram</title>
<polygon fill="white" stroke="transparent" points="-4,4 -4,-689.4 951.73,-689.4 951.73,4 -4,4"/>
<!-- 0 -->
<g id="node1" class="node">
<title>0</title>
<polygon fill="#f2f2f2" stroke="black" points="79.01,-42.5 79.01,-142.5 326.73,-142.5 326.73,-42.5 79.01,-42.5"/>
<text text-anchor="middle" x="202.87" y="-125.9" font-family="Times,serif" font-size="14.00">&lt;&lt;Library&gt;&gt;</text>
<text text-anchor="middle" x="202.87" y="-109.1" font-family="Times,serif" font-size="14.00">CommonError</text>
<text text-anchor="middle" x="202.87" y="-92.3" font-family="Times,serif" font-size="14.00">public/flatten/OwnableModule.flatten.sol</text>
<polyline fill="none" stroke="black" points="79.01,-84.1 326.73,-84.1 "/>
<text text-anchor="start" x="87.01" y="-67.5" font-family="Times,serif" font-size="14.00">Internal:</text>
<text text-anchor="start" x="87.01" y="-50.7" font-family="Times,serif" font-size="14.00"> &#160;&#160;NO_ERROR: uint256</text>
</g>
<!-- 1 -->
<g id="node2" class="node">
<title>1</title>
<polygon fill="#f2f2f2" stroke="black" points="0,-221.5 0,-455.9 415.75,-455.9 415.75,-221.5 0,-221.5"/>
<text text-anchor="middle" x="207.87" y="-439.3" font-family="Times,serif" font-size="14.00">&lt;&lt;Interface&gt;&gt;</text>
<text text-anchor="middle" x="207.87" y="-422.5" font-family="Times,serif" font-size="14.00">IOwnable</text>
<text text-anchor="middle" x="207.87" y="-405.7" font-family="Times,serif" font-size="14.00">public/flatten/OwnableModule.flatten.sol</text>
<polyline fill="none" stroke="black" points="0,-397.5 415.75,-397.5 "/>
<text text-anchor="start" x="8" y="-380.9" font-family="Times,serif" font-size="14.00">External:</text>
<text text-anchor="start" x="8" y="-364.1" font-family="Times,serif" font-size="14.00"> &#160;&#160;&#160;&#160;acceptOwnership()</text>
<text text-anchor="start" x="8" y="-347.3" font-family="Times,serif" font-size="14.00"> &#160;&#160;&#160;&#160;nominateNewOwner(newNominatedOwner: address)</text>
<text text-anchor="start" x="8" y="-330.5" font-family="Times,serif" font-size="14.00"> &#160;&#160;&#160;&#160;renounceNomination()</text>
<text text-anchor="start" x="8" y="-313.7" font-family="Times,serif" font-size="14.00"> &#160;&#160;&#160;&#160;renounceOwnership()</text>
<text text-anchor="start" x="8" y="-296.9" font-family="Times,serif" font-size="14.00"> &#160;&#160;&#160;&#160;owner(): address</text>
<text text-anchor="start" x="8" y="-280.1" font-family="Times,serif" font-size="14.00"> &#160;&#160;&#160;&#160;pendingOwner(): address</text>
<text text-anchor="start" x="8" y="-263.3" font-family="Times,serif" font-size="14.00">Public:</text>
<text text-anchor="start" x="8" y="-246.5" font-family="Times,serif" font-size="14.00"> &#160;&#160;&#160;&lt;&lt;event&gt;&gt; OwnerNominated(newOwner: address)</text>
<text text-anchor="start" x="8" y="-229.7" font-family="Times,serif" font-size="14.00"> &#160;&#160;&#160;&lt;&lt;event&gt;&gt; OwnerChanged(oldOwner: address, newOwner: address)</text>
</g>
<!-- 2 -->
<g id="node3" class="node">
<title>2</title>
<polygon fill="#f2f2f2" stroke="black" points="534.36,-492.9 534.36,-684.9 847.39,-684.9 847.39,-492.9 534.36,-492.9"/>
<text text-anchor="middle" x="690.87" y="-668.3" font-family="Times,serif" font-size="14.00">&lt;&lt;Abstract&gt;&gt;</text>
<text text-anchor="middle" x="690.87" y="-651.5" font-family="Times,serif" font-size="14.00">OwnableStorage</text>
<text text-anchor="middle" x="690.87" y="-634.7" font-family="Times,serif" font-size="14.00">public/flatten/OwnableModule.flatten.sol</text>
<polyline fill="none" stroke="black" points="534.36,-626.5 847.39,-626.5 "/>
<text text-anchor="start" x="542.36" y="-609.9" font-family="Times,serif" font-size="14.00">Private:</text>
<text text-anchor="start" x="542.36" y="-593.1" font-family="Times,serif" font-size="14.00"> &#160;&#160;_SLOT_OWNABLE_STORAGE: bytes32</text>
<polyline fill="none" stroke="black" points="534.36,-584.9 847.39,-584.9 "/>
<text text-anchor="start" x="542.36" y="-568.3" font-family="Times,serif" font-size="14.00">Internal:</text>
<text text-anchor="start" x="542.36" y="-551.5" font-family="Times,serif" font-size="14.00"> &#160;&#160;&#160;_checkOwner()</text>
<text text-anchor="start" x="542.36" y="-534.7" font-family="Times,serif" font-size="14.00"> &#160;&#160;&#160;_owner(): address</text>
<text text-anchor="start" x="542.36" y="-517.9" font-family="Times,serif" font-size="14.00"> &#160;&#160;&#160;_pendingOwner(): address</text>
<text text-anchor="start" x="542.36" y="-501.1" font-family="Times,serif" font-size="14.00"> &#160;&#160;&#160;_getOwnableStorage(): ($: Ownable2StepStorage)</text>
</g>
<!-- 3 -->
<g id="node4" class="node">
<title>3</title>
<polygon fill="#f2f2f2" stroke="black" points="434.01,-288.7 434.01,-388.7 681.73,-388.7 681.73,-288.7 434.01,-288.7"/>
<text text-anchor="middle" x="557.87" y="-372.1" font-family="Times,serif" font-size="14.00">&lt;&lt;Struct&gt;&gt;</text>
<text text-anchor="middle" x="557.87" y="-355.3" font-family="Times,serif" font-size="14.00">Ownable2StepStorage</text>
<text text-anchor="middle" x="557.87" y="-338.5" font-family="Times,serif" font-size="14.00">public/flatten/OwnableModule.flatten.sol</text>
<polyline fill="none" stroke="black" points="434.01,-330.3 681.73,-330.3 "/>
<text text-anchor="start" x="442.01" y="-313.7" font-family="Times,serif" font-size="14.00">owner: address</text>
<text text-anchor="start" x="442.01" y="-296.9" font-family="Times,serif" font-size="14.00">pendingOwner: address</text>
</g>
<!-- 2&#45;&gt;3 -->
<g id="edge2" class="edge">
<title>2&#45;&gt;3</title>
<path fill="none" stroke="black" stroke-dasharray="5,2" d="M646.46,-492.73C629.67,-460.71 610.79,-425.96 594.75,-397.68"/>
<polygon fill="black" stroke="black" points="597.65,-395.69 589.65,-388.74 591.57,-399.16 597.65,-395.69"/>
</g>
<!-- 3&#45;&gt;2 -->
<g id="edge1" class="edge">
<title>3&#45;&gt;2</title>
<path fill="none" stroke="black" d="M578.65,-388.74C591.91,-415.39 609.76,-449.45 627.35,-481.83"/>
<polygon fill="black" stroke="black" points="627.55,-482.2 633.93,-485.55 633.29,-492.73 626.91,-489.38 627.55,-482.2"/>
</g>
<!-- 4 -->
<g id="node5" class="node">
<title>4</title>
<polygon fill="#f2f2f2" stroke="black" points="700.01,-297.1 700.01,-380.3 947.73,-380.3 947.73,-297.1 700.01,-297.1"/>
<text text-anchor="middle" x="823.87" y="-363.7" font-family="Times,serif" font-size="14.00">OwnableMixin</text>
<text text-anchor="middle" x="823.87" y="-346.9" font-family="Times,serif" font-size="14.00">public/flatten/OwnableModule.flatten.sol</text>
<polyline fill="none" stroke="black" points="700.01,-338.7 947.73,-338.7 "/>
<text text-anchor="start" x="708.01" y="-322.1" font-family="Times,serif" font-size="14.00">Public:</text>
<text text-anchor="start" x="708.01" y="-305.3" font-family="Times,serif" font-size="14.00"> &#160;&#160;&#160;&lt;&lt;modifier&gt;&gt; onlyOwner()</text>
</g>
<!-- 4&#45;&gt;2 -->
<g id="edge3" class="edge">
<title>4&#45;&gt;2</title>
<path fill="none" stroke="black" d="M802.06,-380.41C789.43,-403.97 772.81,-434.99 756.28,-465.85"/>
<polygon fill="none" stroke="black" points="746.79,-461.33 741.87,-492.73 765.3,-471.24 746.79,-461.33"/>
</g>
<!-- 5 -->
<g id="node6" class="node">
<title>5</title>
<polygon fill="#f2f2f2" stroke="black" points="344.36,-0.5 344.36,-184.5 771.38,-184.5 771.38,-0.5 344.36,-0.5"/>
<text text-anchor="middle" x="557.87" y="-167.9" font-family="Times,serif" font-size="14.00">OwnableModule</text>
<text text-anchor="middle" x="557.87" y="-151.1" font-family="Times,serif" font-size="14.00">public/flatten/OwnableModule.flatten.sol</text>
<polyline fill="none" stroke="black" points="344.36,-142.9 771.38,-142.9 "/>
<text text-anchor="start" x="352.36" y="-126.3" font-family="Times,serif" font-size="14.00">External:</text>
<text text-anchor="start" x="352.36" y="-109.5" font-family="Times,serif" font-size="14.00"> &#160;&#160;&#160;renounceNomination()</text>
<text text-anchor="start" x="352.36" y="-92.7" font-family="Times,serif" font-size="14.00"> &#160;&#160;&#160;renounceOwnership() &lt;&lt;onlyOwner&gt;&gt;</text>
<text text-anchor="start" x="352.36" y="-75.9" font-family="Times,serif" font-size="14.00">Public:</text>
<text text-anchor="start" x="352.36" y="-59.1" font-family="Times,serif" font-size="14.00"> &#160;&#160;&#160;acceptOwnership()</text>
<text text-anchor="start" x="352.36" y="-42.3" font-family="Times,serif" font-size="14.00"> &#160;&#160;&#160;nominateNewOwner(newNominatedOwner: address) &lt;&lt;onlyOwner&gt;&gt;</text>
<text text-anchor="start" x="352.36" y="-25.5" font-family="Times,serif" font-size="14.00"> &#160;&#160;&#160;owner(): address</text>
<text text-anchor="start" x="352.36" y="-8.7" font-family="Times,serif" font-size="14.00"> &#160;&#160;&#160;pendingOwner(): address</text>
</g>
<!-- 5&#45;&gt;1 -->
<g id="edge4" class="edge">
<title>5&#45;&gt;1</title>
<path fill="none" stroke="black" stroke-dasharray="5,2" d="M427.05,-184.78C417.97,-191.11 408.72,-197.56 399.41,-204.06"/>
<polygon fill="none" stroke="black" points="393.29,-195.53 374.7,-221.3 405.31,-212.75 393.29,-195.53"/>
</g>
<!-- 5&#45;&gt;3 -->
<g id="edge6" class="edge">
<title>5&#45;&gt;3</title>
<path fill="none" stroke="black" stroke-dasharray="5,2" d="M557.87,-184.78C557.87,-216.15 557.87,-250.42 557.87,-278.56"/>
<polygon fill="black" stroke="black" points="554.37,-278.63 557.87,-288.63 561.37,-278.63 554.37,-278.63"/>
</g>
<!-- 5&#45;&gt;4 -->
<g id="edge5" class="edge">
<title>5&#45;&gt;4</title>
<path fill="none" stroke="black" d="M657.3,-184.78C690.65,-215.39 727.01,-248.78 757.23,-276.52"/>
<polygon fill="none" stroke="black" points="750.28,-284.39 779.48,-296.94 764.48,-268.92 750.28,-284.39"/>
</g>
</g>
</svg>
