<?xml version="1.0" encoding="UTF-8" standalone="no"?>
<!DOCTYPE svg PUBLIC "-//W3C//DTD SVG 1.1//EN"
 "http://www.w3.org/Graphics/SVG/1.1/DTD/svg11.dtd">
<!-- Generated by graphviz version 5.0.0 (20220707.1540)
 -->
<!-- Title: UmlClassDiagram Pages: 1 -->
<svg width="1421pt" height="1032pt"
 viewBox="0.00 0.00 1421.48 1032.00" xmlns="http://www.w3.org/2000/svg" xmlns:xlink="http://www.w3.org/1999/xlink">
<g id="graph0" class="graph" transform="scale(1 1) rotate(0) translate(4 1028)">
<title>UmlClassDiagram</title>
<polygon fill="white" stroke="transparent" points="-4,4 -4,-1028 1417.48,-1028 1417.48,4 -4,4"/>
<!-- 0 -->
<g id="node1" class="node">
<title>0</title>
<polygon fill="#f2f2f2" stroke="black" points="169.47,-59.3 169.47,-159.3 404.77,-159.3 404.77,-59.3 169.47,-59.3"/>
<text text-anchor="middle" x="287.12" y="-142.7" font-family="Times,serif" font-size="14.00">&lt;&lt;Library&gt;&gt;</text>
<text text-anchor="middle" x="287.12" y="-125.9" font-family="Times,serif" font-size="14.00">CommonError</text>
<text text-anchor="middle" x="287.12" y="-109.1" font-family="Times,serif" font-size="14.00">public/flatten/RBACModule.flatten.sol</text>
<polyline fill="none" stroke="black" points="169.47,-100.9 404.77,-100.9 "/>
<text text-anchor="start" x="177.47" y="-84.3" font-family="Times,serif" font-size="14.00">Internal:</text>
<text text-anchor="start" x="177.47" y="-67.5" font-family="Times,serif" font-size="14.00"> &#160;&#160;NO_ERROR: uint256</text>
</g>
<!-- 1 -->
<g id="node2" class="node">
<title>1</title>
<polygon fill="#f2f2f2" stroke="black" points="0,-255.1 0,-523.1 594.25,-523.1 594.25,-255.1 0,-255.1"/>
<text text-anchor="middle" x="297.12" y="-506.5" font-family="Times,serif" font-size="14.00">&lt;&lt;Interface&gt;&gt;</text>
<text text-anchor="middle" x="297.12" y="-489.7" font-family="Times,serif" font-size="14.00">IRBAC</text>
<text text-anchor="middle" x="297.12" y="-472.9" font-family="Times,serif" font-size="14.00">public/flatten/RBACModule.flatten.sol</text>
<polyline fill="none" stroke="black" points="0,-464.7 594.25,-464.7 "/>
<text text-anchor="start" x="8" y="-448.1" font-family="Times,serif" font-size="14.00">External:</text>
<text text-anchor="start" x="8" y="-431.3" font-family="Times,serif" font-size="14.00"> &#160;&#160;&#160;&#160;grantPermission(permission: bytes32, target: address)</text>
<text text-anchor="start" x="8" y="-414.5" font-family="Times,serif" font-size="14.00"> &#160;&#160;&#160;&#160;grantNestedPermission(permission: bytes32, nestedAddress: address, target: address)</text>
<text text-anchor="start" x="8" y="-397.7" font-family="Times,serif" font-size="14.00"> &#160;&#160;&#160;&#160;revokePermission(permission: bytes32, target: address)</text>
<text text-anchor="start" x="8" y="-380.9" font-family="Times,serif" font-size="14.00"> &#160;&#160;&#160;&#160;revokeNestedPermission(permission: bytes32, nestedAddress: address, target: address)</text>
<text text-anchor="start" x="8" y="-364.1" font-family="Times,serif" font-size="14.00"> &#160;&#160;&#160;&#160;hasPermission(permission: bytes32, target: address): bool</text>
<text text-anchor="start" x="8" y="-347.3" font-family="Times,serif" font-size="14.00"> &#160;&#160;&#160;&#160;hasNestedPermission(permission: bytes32, nestedAddress: address, target: address): bool</text>
<text text-anchor="start" x="8" y="-330.5" font-family="Times,serif" font-size="14.00">Public:</text>
<text text-anchor="start" x="8" y="-313.7" font-family="Times,serif" font-size="14.00"> &#160;&#160;&#160;&lt;&lt;event&gt;&gt; PermissionGranted(permission: bytes32, target: address)</text>
<text text-anchor="start" x="8" y="-296.9" font-family="Times,serif" font-size="14.00"> &#160;&#160;&#160;&lt;&lt;event&gt;&gt; NestedPermissionGranted(permission: bytes32, nestedAddress: address, target: address)</text>
<text text-anchor="start" x="8" y="-280.1" font-family="Times,serif" font-size="14.00"> &#160;&#160;&#160;&lt;&lt;event&gt;&gt; PermissionRevoked(permission: bytes32, target: address)</text>
<text text-anchor="start" x="8" y="-263.3" font-family="Times,serif" font-size="14.00"> &#160;&#160;&#160;&lt;&lt;event&gt;&gt; NestedPermissionRevoked(permission: bytes32, nestedAddress: address, target: address)</text>
</g>
<!-- 2 -->
<g id="node3" class="node">
<title>2</title>
<polygon fill="#f2f2f2" stroke="black" points="563.61,-627.3 563.61,-819.3 876.64,-819.3 876.64,-627.3 563.61,-627.3"/>
<text text-anchor="middle" x="720.12" y="-802.7" font-family="Times,serif" font-size="14.00">&lt;&lt;Abstract&gt;&gt;</text>
<text text-anchor="middle" x="720.12" y="-785.9" font-family="Times,serif" font-size="14.00">OwnableStorage</text>
<text text-anchor="middle" x="720.12" y="-769.1" font-family="Times,serif" font-size="14.00">public/flatten/RBACModule.flatten.sol</text>
<polyline fill="none" stroke="black" points="563.61,-760.9 876.64,-760.9 "/>
<text text-anchor="start" x="571.61" y="-744.3" font-family="Times,serif" font-size="14.00">Private:</text>
<text text-anchor="start" x="571.61" y="-727.5" font-family="Times,serif" font-size="14.00"> &#160;&#160;_SLOT_OWNABLE_STORAGE: bytes32</text>
<polyline fill="none" stroke="black" points="563.61,-719.3 876.64,-719.3 "/>
<text text-anchor="start" x="571.61" y="-702.7" font-family="Times,serif" font-size="14.00">Internal:</text>
<text text-anchor="start" x="571.61" y="-685.9" font-family="Times,serif" font-size="14.00"> &#160;&#160;&#160;_checkOwner()</text>
<text text-anchor="start" x="571.61" y="-669.1" font-family="Times,serif" font-size="14.00"> &#160;&#160;&#160;_owner(): address</text>
<text text-anchor="start" x="571.61" y="-652.3" font-family="Times,serif" font-size="14.00"> &#160;&#160;&#160;_pendingOwner(): address</text>
<text text-anchor="start" x="571.61" y="-635.5" font-family="Times,serif" font-size="14.00"> &#160;&#160;&#160;_getOwnableStorage(): ($: Ownable2StepStorage)</text>
</g>
<!-- 3 -->
<g id="node4" class="node">
<title>3</title>
<polygon fill="#f2f2f2" stroke="black" points="602.47,-923.5 602.47,-1023.5 837.77,-1023.5 837.77,-923.5 602.47,-923.5"/>
<text text-anchor="middle" x="720.12" y="-1006.9" font-family="Times,serif" font-size="14.00">&lt;&lt;Struct&gt;&gt;</text>
<text text-anchor="middle" x="720.12" y="-990.1" font-family="Times,serif" font-size="14.00">Ownable2StepStorage</text>
<text text-anchor="middle" x="720.12" y="-973.3" font-family="Times,serif" font-size="14.00">public/flatten/RBACModule.flatten.sol</text>
<polyline fill="none" stroke="black" points="602.47,-965.1 837.77,-965.1 "/>
<text text-anchor="start" x="610.47" y="-948.5" font-family="Times,serif" font-size="14.00">owner: address</text>
<text text-anchor="start" x="610.47" y="-931.7" font-family="Times,serif" font-size="14.00">pendingOwner: address</text>
</g>
<!-- 2&#45;&gt;3 -->
<g id="edge2" class="edge">
<title>2&#45;&gt;3</title>
<path fill="none" stroke="black" stroke-dasharray="5,2" d="M713.54,-819.55C713.17,-851.09 713.42,-885.25 714.27,-913.28"/>
<polygon fill="black" stroke="black" points="710.77,-913.43 714.61,-923.31 717.77,-913.19 710.77,-913.43"/>
</g>
<!-- 3&#45;&gt;2 -->
<g id="edge1" class="edge">
<title>3&#45;&gt;2</title>
<path fill="none" stroke="black" d="M725.63,-923.31C726.63,-897.04 727.03,-863.61 726.82,-831.69"/>
<polygon fill="black" stroke="black" points="726.82,-831.55 722.76,-825.59 726.71,-819.55 730.76,-825.51 726.82,-831.55"/>
</g>
<!-- 4 -->
<g id="node5" class="node">
<title>4</title>
<polygon fill="#f2f2f2" stroke="black" points="894.76,-560.1 894.76,-886.5 1413.48,-886.5 1413.48,-560.1 894.76,-560.1"/>
<text text-anchor="middle" x="1154.12" y="-869.9" font-family="Times,serif" font-size="14.00">&lt;&lt;Abstract&gt;&gt;</text>
<text text-anchor="middle" x="1154.12" y="-853.1" font-family="Times,serif" font-size="14.00">RBACStorage</text>
<text text-anchor="middle" x="1154.12" y="-836.3" font-family="Times,serif" font-size="14.00">public/flatten/RBACModule.flatten.sol</text>
<polyline fill="none" stroke="black" points="894.76,-828.1 1413.48,-828.1 "/>
<text text-anchor="start" x="902.76" y="-811.5" font-family="Times,serif" font-size="14.00">Private:</text>
<text text-anchor="start" x="902.76" y="-794.7" font-family="Times,serif" font-size="14.00"> &#160;&#160;_SLOT_RBAC_STORAGE: bytes32</text>
<text text-anchor="start" x="902.76" y="-777.9" font-family="Times,serif" font-size="14.00">Internal:</text>
<text text-anchor="start" x="902.76" y="-761.1" font-family="Times,serif" font-size="14.00"> &#160;&#160;_CONFIGURATOR_PERMISSION: bytes32</text>
<text text-anchor="start" x="902.76" y="-744.3" font-family="Times,serif" font-size="14.00"> &#160;&#160;_PROTOCOL_OWNER_PERMISSION: bytes32</text>
<text text-anchor="start" x="902.76" y="-727.5" font-family="Times,serif" font-size="14.00"> &#160;&#160;_PAUSE_GUARDIAN_PERMISSION: bytes32</text>
<text text-anchor="start" x="902.76" y="-710.7" font-family="Times,serif" font-size="14.00"> &#160;&#160;_BORROW_CAP_GUARDIAN_PERMISSION: bytes32</text>
<text text-anchor="start" x="902.76" y="-693.9" font-family="Times,serif" font-size="14.00"> &#160;&#160;_SUPPLY_CAP_GUARDIAN_PERMISSION: bytes32</text>
<text text-anchor="start" x="902.76" y="-677.1" font-family="Times,serif" font-size="14.00"> &#160;&#160;_RESERVE_MANAGER_PERMISSION: bytes32</text>
<text text-anchor="start" x="902.76" y="-660.3" font-family="Times,serif" font-size="14.00"> &#160;&#160;_RESERVE_WITHDRAWER_PERMISSION: bytes32</text>
<polyline fill="none" stroke="black" points="894.76,-652.1 1413.48,-652.1 "/>
<text text-anchor="start" x="902.76" y="-635.5" font-family="Times,serif" font-size="14.00">Internal:</text>
<text text-anchor="start" x="902.76" y="-618.7" font-family="Times,serif" font-size="14.00"> &#160;&#160;&#160;_checkPermission(permission: bytes32, target: address)</text>
<text text-anchor="start" x="902.76" y="-601.9" font-family="Times,serif" font-size="14.00"> &#160;&#160;&#160;_checkNestedPermission(permission: bytes32, nestedAddress: address, target: address)</text>
<text text-anchor="start" x="902.76" y="-585.1" font-family="Times,serif" font-size="14.00"> &#160;&#160;&#160;_isPermissionValid(permission: bytes32)</text>
<text text-anchor="start" x="902.76" y="-568.3" font-family="Times,serif" font-size="14.00"> &#160;&#160;&#160;_getRBACStorage(): ($: RBACData)</text>
</g>
<!-- 5 -->
<g id="node6" class="node">
<title>5</title>
<polygon fill="#f2f2f2" stroke="black" points="903.34,-923.5 903.34,-1023.5 1404.91,-1023.5 1404.91,-923.5 903.34,-923.5"/>
<text text-anchor="middle" x="1154.12" y="-1006.9" font-family="Times,serif" font-size="14.00">&lt;&lt;Struct&gt;&gt;</text>
<text text-anchor="middle" x="1154.12" y="-990.1" font-family="Times,serif" font-size="14.00">RBACData</text>
<text text-anchor="middle" x="1154.12" y="-973.3" font-family="Times,serif" font-size="14.00">public/flatten/RBACModule.flatten.sol</text>
<polyline fill="none" stroke="black" points="903.34,-965.1 1404.91,-965.1 "/>
<text text-anchor="start" x="911.34" y="-948.5" font-family="Times,serif" font-size="14.00">permissions: mapping(bytes32=&gt;mapping(address=&gt;bool))</text>
<text text-anchor="start" x="911.34" y="-931.7" font-family="Times,serif" font-size="14.00">nestedPermissions: mapping(bytes32=&gt;mapping(address=&gt;mapping(address=&gt;bool)))</text>
</g>
<!-- 4&#45;&gt;5 -->
<g id="edge4" class="edge">
<title>4&#45;&gt;5</title>
<path fill="none" stroke="black" stroke-dasharray="5,2" d="M1147.67,-886.74C1147.81,-895.89 1148.01,-904.73 1148.26,-913.04"/>
<polygon fill="black" stroke="black" points="1144.77,-913.39 1148.61,-923.26 1151.77,-913.15 1144.77,-913.39"/>
</g>
<!-- 5&#45;&gt;4 -->
<g id="edge3" class="edge">
<title>5&#45;&gt;4</title>
<path fill="none" stroke="black" d="M1159.63,-923.26C1159.92,-915.62 1160.16,-907.38 1160.35,-898.74"/>
<polygon fill="black" stroke="black" points="1160.35,-898.73 1156.47,-892.66 1160.58,-886.74 1164.46,-892.81 1160.35,-898.73"/>
</g>
<!-- 6 -->
<g id="node7" class="node">
<title>6</title>
<polygon fill="#f2f2f2" stroke="black" points="612.47,-347.5 612.47,-430.7 847.77,-430.7 847.77,-347.5 612.47,-347.5"/>
<text text-anchor="middle" x="730.12" y="-414.1" font-family="Times,serif" font-size="14.00">OwnableMixin</text>
<text text-anchor="middle" x="730.12" y="-397.3" font-family="Times,serif" font-size="14.00">public/flatten/RBACModule.flatten.sol</text>
<polyline fill="none" stroke="black" points="612.47,-389.1 847.77,-389.1 "/>
<text text-anchor="start" x="620.47" y="-372.5" font-family="Times,serif" font-size="14.00">Public:</text>
<text text-anchor="start" x="620.47" y="-355.7" font-family="Times,serif" font-size="14.00"> &#160;&#160;&#160;&lt;&lt;modifier&gt;&gt; onlyOwner()</text>
</g>
<!-- 6&#45;&gt;2 -->
<g id="edge5" class="edge">
<title>6&#45;&gt;2</title>
<path fill="none" stroke="black" d="M728.9,-430.83C727.65,-472.12 725.67,-538.12 723.9,-596.88"/>
<polygon fill="none" stroke="black" points="713.39,-596.93 722.98,-627.23 734.38,-597.56 713.39,-596.93"/>
</g>
<!-- 7 -->
<g id="node8" class="node">
<title>7</title>
<polygon fill="#f2f2f2" stroke="black" points="887.26,-339.1 887.26,-439.1 1398.98,-439.1 1398.98,-339.1 887.26,-339.1"/>
<text text-anchor="middle" x="1143.12" y="-422.5" font-family="Times,serif" font-size="14.00">RBACMixin</text>
<text text-anchor="middle" x="1143.12" y="-405.7" font-family="Times,serif" font-size="14.00">public/flatten/RBACModule.flatten.sol</text>
<polyline fill="none" stroke="black" points="887.26,-397.5 1398.98,-397.5 "/>
<text text-anchor="start" x="895.26" y="-380.9" font-family="Times,serif" font-size="14.00">Internal:</text>
<text text-anchor="start" x="895.26" y="-364.1" font-family="Times,serif" font-size="14.00"> &#160;&#160;&#160;checkPermission(permission: bytes32, target: address)</text>
<text text-anchor="start" x="895.26" y="-347.3" font-family="Times,serif" font-size="14.00"> &#160;&#160;&#160;checkNestedPermission(permission: bytes32, nestedAddress: address, target: address)</text>
</g>
<!-- 7&#45;&gt;4 -->
<g id="edge6" class="edge">
<title>7&#45;&gt;4</title>
<path fill="none" stroke="black" d="M1144.75,-439.12C1145.57,-464.04 1146.63,-496.12 1147.74,-529.68"/>
<polygon fill="none" stroke="black" points="1137.25,-530.11 1148.74,-559.75 1158.24,-529.42 1137.25,-530.11"/>
</g>
<!-- 8 -->
<g id="node9" class="node">
<title>8</title>
<polygon fill="#f2f2f2" stroke="black" points="422.5,-0.5 422.5,-218.1 1037.74,-218.1 1037.74,-0.5 422.5,-0.5"/>
<text text-anchor="middle" x="730.12" y="-201.5" font-family="Times,serif" font-size="14.00">RBACModule</text>
<text text-anchor="middle" x="730.12" y="-184.7" font-family="Times,serif" font-size="14.00">public/flatten/RBACModule.flatten.sol</text>
<polyline fill="none" stroke="black" points="422.5,-176.5 1037.74,-176.5 "/>
<text text-anchor="start" x="430.5" y="-159.9" font-family="Times,serif" font-size="14.00">Internal:</text>
<text text-anchor="start" x="430.5" y="-143.1" font-family="Times,serif" font-size="14.00"> &#160;&#160;&#160;_hasPermission(permission: bytes32, target: address): bool</text>
<text text-anchor="start" x="430.5" y="-126.3" font-family="Times,serif" font-size="14.00"> &#160;&#160;&#160;_hasNestedPermission(permission: bytes32, nestedAddress: address, target: address): bool</text>
<text text-anchor="start" x="430.5" y="-109.5" font-family="Times,serif" font-size="14.00">External:</text>
<text text-anchor="start" x="430.5" y="-92.7" font-family="Times,serif" font-size="14.00"> &#160;&#160;&#160;grantPermission(permission: bytes32, target: address) &lt;&lt;onlyOwner&gt;&gt;</text>
<text text-anchor="start" x="430.5" y="-75.9" font-family="Times,serif" font-size="14.00"> &#160;&#160;&#160;grantNestedPermission(permission: bytes32, nestedAddress: address, target: address) &lt;&lt;onlyOwner&gt;&gt;</text>
<text text-anchor="start" x="430.5" y="-59.1" font-family="Times,serif" font-size="14.00"> &#160;&#160;&#160;revokePermission(permission: bytes32, target: address) &lt;&lt;onlyOwner&gt;&gt;</text>
<text text-anchor="start" x="430.5" y="-42.3" font-family="Times,serif" font-size="14.00"> &#160;&#160;&#160;revokeNestedPermission(permission: bytes32, nestedAddress: address, target: address) &lt;&lt;onlyOwner&gt;&gt;</text>
<text text-anchor="start" x="430.5" y="-25.5" font-family="Times,serif" font-size="14.00"> &#160;&#160;&#160;hasPermission(permission: bytes32, target: address): bool</text>
<text text-anchor="start" x="430.5" y="-8.7" font-family="Times,serif" font-size="14.00"> &#160;&#160;&#160;hasNestedPermission(permission: bytes32, nestedAddress: address, target: address): bool</text>
</g>
<!-- 8&#45;&gt;1 -->
<g id="edge7" class="edge">
<title>8&#45;&gt;1</title>
<path fill="none" stroke="black" stroke-dasharray="5,2" d="M562.09,-218.1C551.46,-224.92 540.67,-231.85 529.82,-238.81"/>
<polygon fill="none" stroke="black" points="524.04,-230.04 504.46,-255.08 535.38,-247.72 524.04,-230.04"/>
</g>
<!-- 8&#45;&gt;6 -->
<g id="edge9" class="edge">
<title>8&#45;&gt;6</title>
<path fill="none" stroke="black" d="M730.12,-218.1C730.12,-251.37 730.12,-287.14 730.12,-317.25"/>
<polygon fill="none" stroke="black" points="719.62,-317.31 730.12,-347.31 740.62,-317.31 719.62,-317.31"/>
</g>
<!-- 8&#45;&gt;7 -->
<g id="edge8" class="edge">
<title>8&#45;&gt;7</title>
<path fill="none" stroke="black" d="M890.39,-218.1C942.47,-253.13 998.69,-290.95 1044.85,-322"/>
<polygon fill="none" stroke="black" points="1039.31,-330.93 1070.06,-338.96 1051.03,-313.5 1039.31,-330.93"/>
</g>
</g>
</svg>
